<?xml version="1.0" encoding="utf-8" ?>
<svg baseProfile="full" fill="none" height="1343" version="1.1" viewBox="0 0 1955 1343" width="1955" xmlns="http://www.w3.org/2000/svg" xmlns:ev="http://www.w3.org/2001/xml-events" xmlns:xlink="http://www.w3.org/1999/xlink"><defs /><line fill="none" stroke="black" stroke-linecap="square" stroke-width="1" x1="41" x2="71" y1="30" y2="30" /><line fill="none" stroke="black" stroke-linecap="square" stroke-width="1" x1="257" x2="313" y1="47" y2="47" /><line fill="none" stroke="black" stroke-linecap="square" stroke-width="1" x1="64" x2="90" y1="52" y2="52" /><line fill="none" stroke="black" stroke-linecap="square" stroke-width="1" x1="61" x2="94" y1="58" y2="58" /><line fill="none" stroke="black" stroke-linecap="square" stroke-width="1" x1="60" x2="475" y1="60" y2="60" /><line fill="none" stroke="black" stroke-linecap="square" stroke-width="1" x1="579" x2="607" y1="65" y2="65" /><line fill="none" stroke="black" stroke-linecap="square" stroke-width="1" x1="634" x2="662" y1="69" y2="69" /><line fill="none" stroke="black" stroke-linecap="square" stroke-width="1" x1="688" x2="756" y1="74" y2="74" /><line fill="none" stroke="black" stroke-linecap="square" stroke-width="1" x1="368" x2="395" y1="84" y2="84" /><line fill="none" stroke="black" stroke-linecap="square" stroke-width="1" x1="764" x2="816" y1="84" y2="84" /><line fill="none" stroke="black" stroke-linecap="square" stroke-width="1" x1="804" x2="906" y1="87" y2="87" /><line fill="none" stroke="black" stroke-linecap="square" stroke-width="1" x1="1051" x2="1079" y1="105" y2="105" /><line fill="none" stroke="black" stroke-linecap="square" stroke-width="1" x1="826" x2="852" y1="110" y2="110" /><line fill="none" stroke="black" stroke-linecap="square" stroke-width="1" x1="822" x2="853" y1="118" y2="118" /><line fill="none" stroke="black" stroke-linecap="square" stroke-width="1" x1="1323" x2="1360" y1="121" y2="121" /><line fill="none" stroke="black" stroke-linecap="square" stroke-width="1" x1="1127" x2="1159" y1="139" y2="139" /><line fill="none" stroke="black" stroke-linecap="square" stroke-width="1" x1="1749" x2="1795" y1="154" y2="154" /><line fill="none" stroke="black" stroke-linecap="square" stroke-width="1" x1="63" x2="1858" y1="166" y2="166" /><line fill="none" stroke="black" stroke-linecap="square" stroke-width="1" x1="151" x2="177" y1="181" y2="181" /><line fill="none" stroke="black" stroke-linecap="square" stroke-width="1" x1="151" x2="179" y1="186" y2="186" /><line fill="none" stroke="black" stroke-linecap="square" stroke-width="1" x1="195" x2="1921" y1="191" y2="191" /><line fill="none" stroke="black" stroke-linecap="square" stroke-width="1" x1="47" x2="301" y1="218" y2="218" /><line fill="none" stroke="black" stroke-linecap="square" stroke-width="1" x1="666" x2="693" y1="229" y2="229" /><line fill="none" stroke="black" stroke-linecap="square" stroke-width="1" x1="471" x2="763" y1="237" y2="237" /><line fill="none" stroke="black" stroke-linecap="square" stroke-width="1" x1="471" x2="1525" y1="253" y2="253" /><line fill="none" stroke="black" stroke-linecap="square" stroke-width="1" x1="1785" x2="1813" y1="282" y2="282" /><line fill="none" stroke="black" stroke-linecap="square" stroke-width="1" x1="1853" x2="1882" y1="282" y2="282" /><line fill="none" stroke="black" stroke-linecap="square" stroke-width="1" x1="1836" x2="1882" y1="288" y2="288" /><line fill="none" stroke="black" stroke-linecap="square" stroke-width="1" x1="461" x2="572" y1="307" y2="307" /><line fill="none" stroke="black" stroke-linecap="square" stroke-width="1" x1="690" x2="860" y1="307" y2="307" /><line fill="none" stroke="black" stroke-linecap="square" stroke-width="1" x1="448" x2="1144" y1="312" y2="312" /><line fill="none" stroke="black" stroke-linecap="square" stroke-width="1" x1="996" x2="1023" y1="364" y2="364" /><line fill="none" stroke="black" stroke-linecap="square" stroke-width="1" x1="729" x2="785" y1="382" y2="382" /><line fill="none" stroke="black" stroke-linecap="square" stroke-width="1" x1="1001" x2="1390" y1="382" y2="382" /><line fill="none" stroke="black" stroke-linecap="square" stroke-width="1" x1="1473" x2="1503" y1="382" y2="382" /><line fill="none" stroke="black" stroke-linecap="square" stroke-width="1" x1="154" x2="1913" y1="396" y2="396" /><line fill="none" stroke="black" stroke-linecap="square" stroke-width="1" x1="199" x2="251" y1="416" y2="416" /><line fill="none" stroke="black" stroke-linecap="square" stroke-width="1" x1="552" x2="716" y1="428" y2="428" /><line fill="none" stroke="black" stroke-linecap="square" stroke-width="1" x1="564" x2="716" y1="436" y2="436" /><line fill="none" stroke="black" stroke-linecap="square" stroke-width="1" x1="832" x2="909" y1="440" y2="440" /><line fill="none" stroke="black" stroke-linecap="square" stroke-width="1" x1="564" x2="659" y1="456" y2="456" /><line fill="none" stroke="black" stroke-linecap="square" stroke-width="1" x1="686" x2="714" y1="456" y2="456" /><line fill="none" stroke="black" stroke-linecap="square" stroke-width="1" x1="50" x2="1390" y1="462" y2="462" /><line fill="none" stroke="black" stroke-linecap="square" stroke-width="1" x1="49" x2="1791" y1="475" y2="475" /><line fill="none" stroke="black" stroke-linecap="square" stroke-width="1" x1="564" x2="716" y1="517" y2="517" /><line fill="none" stroke="black" stroke-linecap="square" stroke-width="1" x1="1404" x2="1448" y1="520" y2="520" /><line fill="none" stroke="black" stroke-linecap="square" stroke-width="1" x1="1587" x2="1615" y1="520" y2="520" /><line fill="none" stroke="black" stroke-linecap="square" stroke-width="1" x1="63" x2="1919" y1="533" y2="533" /><line fill="none" stroke="black" stroke-linecap="square" stroke-width="1" x1="222" x2="248" y1="558" y2="558" /><line fill="none" stroke="black" stroke-linecap="square" stroke-width="1" x1="151" x2="178" y1="564" y2="564" /><line fill="none" stroke="black" stroke-linecap="square" stroke-width="1" x1="151" x2="248" y1="568" y2="568" /><line fill="none" stroke="black" stroke-linecap="square" stroke-width="1" x1="46" x2="393" y1="593" y2="593" /><line fill="none" stroke="black" stroke-linecap="square" stroke-width="1" x1="547" x2="661" y1="632" y2="632" /><line fill="none" stroke="black" stroke-linecap="square" stroke-width="1" x1="701" x2="763" y1="632" y2="632" /><line fill="none" stroke="black" stroke-linecap="square" stroke-width="1" x1="489" x2="1325" y1="648" y2="648" /><line fill="none" stroke="black" stroke-linecap="square" stroke-width="1" x1="1427" x2="1482" y1="677" y2="677" /><line fill="none" stroke="black" stroke-linecap="square" stroke-width="1" x1="1428" x2="1540" y1="685" y2="685" /><line fill="none" stroke="black" stroke-linecap="square" stroke-width="1" x1="1427" x2="1486" y1="692" y2="692" /><line fill="none" stroke="black" stroke-linecap="square" stroke-width="1" x1="1412" x2="1596" y1="696" y2="696" /><line fill="none" stroke="black" stroke-linecap="square" stroke-width="1" x1="1522" x2="1557" y1="705" y2="705" /><line fill="none" stroke="black" stroke-linecap="square" stroke-width="1" x1="1455" x2="1486" y1="712" y2="712" /><line fill="none" stroke="black" stroke-linecap="square" stroke-width="1" x1="158" x2="1595" y1="731" y2="731" /><line fill="none" stroke="black" stroke-linecap="square" stroke-width="1" x1="1414" x2="1481" y1="751" y2="751" /><line fill="none" stroke="black" stroke-linecap="square" stroke-width="1" x1="44" x2="780" y1="786" y2="786" /><line fill="none" stroke="black" stroke-linecap="square" stroke-width="1" x1="508" x2="615" y1="810" y2="810" /><line fill="none" stroke="black" stroke-linecap="square" stroke-width="1" x1="508" x2="617" y1="819" y2="819" /><line fill="none" stroke="black" stroke-linecap="square" stroke-width="1" x1="940" x2="1197" y1="836" y2="836" /><line fill="none" stroke="black" stroke-linecap="square" stroke-width="1" x1="728" x2="775" y1="848" y2="848" /><line fill="none" stroke="black" stroke-linecap="square" stroke-width="1" x1="692" x2="1138" y1="852" y2="852" /><line fill="none" stroke="black" stroke-linecap="square" stroke-width="1" x1="589" x2="623" y1="862" y2="862" /><line fill="none" stroke="black" stroke-linecap="square" stroke-width="1" x1="679" x2="704" y1="862" y2="862" /><line fill="none" stroke="black" stroke-linecap="square" stroke-width="1" x1="942" x2="1197" y1="876" y2="876" /><line fill="none" stroke="black" stroke-linecap="square" stroke-width="1" x1="62" x2="988" y1="914" y2="914" /><line fill="none" stroke="black" stroke-linecap="square" stroke-width="1" x1="835" x2="868" y1="925" y2="925" /><line fill="none" stroke="black" stroke-linecap="square" stroke-width="1" x1="62" x2="88" y1="932" y2="932" /><line fill="none" stroke="black" stroke-linecap="square" stroke-width="1" x1="959" x2="985" y1="942" y2="942" /><line fill="none" stroke="black" stroke-linecap="square" stroke-width="1" x1="629" x2="862" y1="970" y2="970" /><line fill="none" stroke="black" stroke-linecap="square" stroke-width="1" x1="145" x2="173" y1="1018" y2="1018" /><line fill="none" stroke="black" stroke-linecap="square" stroke-width="1" x1="720" x2="769" y1="1026" y2="1026" /><line fill="none" stroke="black" stroke-linecap="square" stroke-width="1" x1="41" x2="401" y1="1073" y2="1073" /><line fill="none" stroke="black" stroke-linecap="square" stroke-width="1" x1="631" x2="856" y1="1096" y2="1096" /><line fill="none" stroke="black" stroke-linecap="square" stroke-width="1" x1="611" x2="639" y1="1146" y2="1146" /><line fill="none" stroke="black" stroke-linecap="square" stroke-width="1" x1="611" x2="1020" y1="1150" y2="1150" /><line fill="none" stroke="black" stroke-linecap="square" stroke-width="1" x1="498" x2="862" y1="1286" y2="1286" /><line fill="none" stroke="black" stroke-linecap="square" stroke-width="1" x1="40" x2="40" y1="28" y2="1070" /><line fill="none" stroke="black" stroke-linecap="square" stroke-width="1" x1="45" x2="45" y1="25" y2="1074" /><line fill="none" stroke="black" stroke-linecap="square" stroke-width="1" x1="90" x2="90" y1="142" y2="167" /><line fill="none" stroke="black" stroke-linecap="square" stroke-width="1" x1="90" x2="90" y1="894" y2="941" /><line fill="none" stroke="black" stroke-linecap="square" stroke-width="1" x1="295" x2="295" y1="218" y2="530" /><line fill="none" stroke="black" stroke-linecap="square" stroke-width="1" x1="301" x2="301" y1="216" y2="279" /><line fill="none" stroke="black" stroke-linecap="square" stroke-width="1" x1="301" x2="301" y1="325" y2="529" /><line fill="none" stroke="black" stroke-linecap="square" stroke-width="1" x1="370" x2="370" y1="128" y2="546" /><line fill="none" stroke="black" stroke-linecap="square" stroke-width="1" x1="381" x2="381" y1="51" y2="945" /><line fill="none" stroke="black" stroke-linecap="square" stroke-width="1" x1="392" x2="392" y1="127" y2="1078" /><line fill="none" stroke="black" stroke-linecap="square" stroke-width="1" x1="493" x2="493" y1="632" y2="659" /><line fill="none" stroke="black" stroke-linecap="square" stroke-width="1" x1="503" x2="503" y1="782" y2="869" /><line fill="none" stroke="black" stroke-linecap="square" stroke-width="1" x1="510" x2="510" y1="632" y2="1288" /><line fill="none" stroke="black" stroke-linecap="square" stroke-width="1" x1="552" x2="552" y1="381" y2="541" /><line fill="none" stroke="black" stroke-linecap="square" stroke-width="1" x1="556" x2="556" y1="378" y2="796" /><line fill="none" stroke="black" stroke-linecap="square" stroke-width="1" x1="566" x2="566" y1="436" y2="539" /><line fill="none" stroke="black" stroke-linecap="square" stroke-width="1" x1="607" x2="607" y1="78" y2="306" /><line fill="none" stroke="black" stroke-linecap="square" stroke-width="1" x1="610" x2="610" y1="66" y2="539" /><line fill="none" stroke="black" stroke-linecap="square" stroke-width="1" x1="615" x2="615" y1="66" y2="873" /><line fill="none" stroke="black" stroke-linecap="square" stroke-width="1" x1="631" x2="631" y1="1072" y2="1098" /><line fill="none" stroke="black" stroke-linecap="square" stroke-width="1" x1="682" x2="682" y1="441" y2="737" /><line fill="none" stroke="black" stroke-linecap="square" stroke-width="1" x1="705" x2="705" y1="382" y2="920" /><line fill="none" stroke="black" stroke-linecap="square" stroke-width="1" x1="732" x2="732" y1="731" y2="855" /><line fill="none" stroke="black" stroke-linecap="square" stroke-width="1" x1="748" x2="748" y1="782" y2="848" /><line fill="none" stroke="black" stroke-linecap="square" stroke-width="1" x1="826" x2="826" y1="895" y2="941" /><line fill="none" stroke="black" stroke-linecap="square" stroke-width="1" x1="839" x2="839" y1="84" y2="942" /><line fill="none" stroke="black" stroke-linecap="square" stroke-width="1" x1="847" x2="847" y1="632" y2="1308" /><line fill="none" stroke="black" stroke-linecap="square" stroke-width="1" x1="856" x2="856" y1="994" y2="1064" /><line fill="none" stroke="black" stroke-linecap="square" stroke-width="1" x1="860" x2="860" y1="936" y2="1302" /><line fill="none" stroke="black" stroke-linecap="square" stroke-width="1" x1="942" x2="942" y1="774" y2="875" /><line fill="none" stroke="black" stroke-linecap="square" stroke-width="1" x1="952" x2="952" y1="1125" y2="1197" /><line fill="none" stroke="black" stroke-linecap="square" stroke-width="1" x1="959" x2="959" y1="886" y2="940" /><line fill="none" stroke="black" stroke-linecap="square" stroke-width="1" x1="966" x2="966" y1="886" y2="941" /><line fill="none" stroke="black" stroke-linecap="square" stroke-width="1" x1="994" x2="994" y1="94" y2="329" /><line fill="none" stroke="black" stroke-linecap="square" stroke-width="1" x1="1010" x2="1010" y1="1120" y2="1212" /><line fill="none" stroke="black" stroke-linecap="square" stroke-width="1" x1="1021" x2="1021" y1="1122" y2="1197" /><line fill="none" stroke="black" stroke-linecap="square" stroke-width="1" x1="1143" x2="1143" y1="106" y2="315" /><line fill="none" stroke="black" stroke-linecap="square" stroke-width="1" x1="1188" x2="1188" y1="390" y2="531" /><line fill="none" stroke="black" stroke-linecap="square" stroke-width="1" x1="1196" x2="1196" y1="390" y2="876" /><line fill="none" stroke="black" stroke-linecap="square" stroke-width="1" x1="1375" x2="1375" y1="128" y2="179" /><line fill="none" stroke="black" stroke-linecap="square" stroke-width="1" x1="1400" x2="1400" y1="175" y2="315" /><line fill="none" stroke="black" stroke-linecap="square" stroke-width="1" x1="1406" x2="1406" y1="476" y2="531" /><line fill="none" stroke="black" stroke-linecap="square" stroke-width="1" x1="1412" x2="1412" y1="476" y2="532" /><line fill="none" stroke="black" stroke-linecap="square" stroke-width="1" x1="1413" x2="1413" y1="382" y2="747" /><line fill="none" stroke="black" stroke-linecap="square" stroke-width="1" x1="1592" x2="1592" y1="382" y2="535" /><line fill="none" stroke="black" stroke-linecap="square" stroke-width="1" x1="1738" x2="1738" y1="1226" y2="1342" /><line fill="none" stroke="black" stroke-linecap="square" stroke-width="1" x1="1754" x2="1754" y1="151" y2="315" /><line fill="none" stroke="black" stroke-linecap="square" stroke-width="1" x1="1906" x2="1906" y1="161" y2="546" /><line fill="none" stroke="black" stroke-linecap="square" stroke-width="1" x1="1562" x2="1723" y1="136" y2="148" /><line fill="none" stroke="black" stroke-linecap="square" stroke-width="1" x1="1361" x2="1560" y1="122" y2="135" /><line fill="none" stroke="black" stroke-linecap="square" stroke-width="1" x1="593" x2="758" y1="70" y2="82" /><line fill="none" stroke="black" stroke-linecap="square" stroke-width="1" x1="324" x2="404" y1="46" y2="52" /><line fill="none" stroke="black" stroke-linecap="square" stroke-width="1" x1="1050" x2="1212" y1="103" y2="115" /><line fill="none" stroke="black" stroke-linecap="square" stroke-width="1" x1="1588" x2="1761" y1="143" y2="156" /><line fill="none" stroke="black" stroke-linecap="square" stroke-width="1" x1="970" x2="1065" y1="93" y2="100" /><line fill="none" stroke="black" stroke-linecap="square" stroke-width="1" x1="1426" x2="1586" y1="131" y2="142" /><line fill="none" stroke="black" stroke-linecap="square" stroke-width="1" x1="1805" x2="1925" y1="154" y2="163" /><line fill="none" stroke="black" stroke-linecap="square" stroke-width="1" x1="163" x2="298" y1="34" y2="44" /><line fill="none" stroke="black" stroke-linecap="square" stroke-width="1" x1="424" x2="497" y1="53" y2="58" /><line fill="none" stroke="black" stroke-linecap="square" stroke-width="1" x1="907" x2="1009" y1="92" y2="100" /><line fill="none" stroke="black" stroke-linecap="square" stroke-width="1" x1="659" x2="687" y1="636" y2="682" /><line fill="none" stroke="black" stroke-linecap="square" stroke-width="1" x1="1078" x2="1211" y1="101" y2="111" /><line fill="none" stroke="black" stroke-linecap="square" stroke-width="1" x1="309" x2="393" y1="48" y2="55" /><line fill="none" stroke="black" stroke-linecap="square" stroke-width="1" x1="498" x2="600" y1="58" y2="66" /><line fill="none" stroke="black" stroke-linecap="square" stroke-width="1" x1="1334" x2="1420" y1="124" y2="130" /><line fill="none" stroke="black" stroke-linecap="square" stroke-width="1" x1="1452" x2="1520" y1="701" y2="693" /><line fill="none" stroke="black" stroke-linecap="square" stroke-width="1" x1="377" x2="391" y1="114" y2="139" /><line fill="none" stroke="black" stroke-linecap="square" stroke-width="1" x1="969" x2="1021" y1="1119" y2="1196" /><line fill="none" stroke="black" stroke-linecap="square" stroke-width="1" x1="704" x2="710" y1="737" y2="658" /><line fill="none" stroke="black" stroke-linecap="square" stroke-width="1" x1="974" x2="1021" y1="1119" y2="1189" /><line fill="none" stroke="black" stroke-linecap="square" stroke-width="1" x1="175" x2="254" y1="39" y2="45" /><line fill="none" stroke="black" stroke-linecap="square" stroke-width="1" x1="42" x2="159" y1="25" y2="33" /><line fill="none" stroke="black" stroke-linecap="square" stroke-width="1" x1="1451" x2="1488" y1="734" y2="719" /><line fill="none" stroke="black" stroke-linecap="square" stroke-width="1" x1="476" x2="539" y1="61" y2="66" /><line fill="none" stroke="black" stroke-linecap="square" stroke-width="1" x1="1252" x2="1319" y1="118" y2="123" /><line fill="none" stroke="black" stroke-linecap="square" stroke-width="1" x1="564" x2="570" y1="441" y2="497" /><line fill="none" stroke="black" stroke-linecap="square" stroke-width="1" x1="739" x2="767" y1="1023" y2="1012" /><line fill="none" stroke="black" stroke-linecap="square" stroke-width="1" x1="739" x2="769" y1="1026" y2="1014" /><line fill="none" stroke="black" stroke-linecap="square" stroke-width="1" x1="629" x2="635" y1="967" y2="1016" /><line fill="none" stroke="black" stroke-linecap="square" stroke-width="1" x1="633" x2="704" y1="972" y2="965" /><line fill="none" stroke="black" stroke-linecap="square" stroke-width="1" x1="1457" x2="1522" y1="687" y2="694" /><line fill="none" stroke="black" stroke-linecap="square" stroke-width="1" x1="1415" x2="1482" y1="740" y2="729" /><line fill="none" stroke="black" stroke-linecap="square" stroke-width="1" x1="1437" x2="1519" y1="687" y2="697" /><line fill="none" stroke="black" stroke-linecap="square" stroke-width="1" x1="1523" x2="1549" y1="413" y2="420" /><line fill="none" stroke="black" stroke-linecap="square" stroke-width="1" x1="993" x2="1015" y1="1165" y2="1198" /><line fill="none" stroke="black" stroke-linecap="square" stroke-width="1" x1="66" x2="92" y1="49" y2="55" /><line fill="none" stroke="black" stroke-linecap="square" stroke-width="1" x1="667" x2="694" y1="227" y2="233" /><line fill="none" stroke="black" stroke-linecap="square" stroke-width="1" x1="1742" x2="1785" y1="474" y2="483" /><line fill="none" stroke="black" stroke-linecap="square" stroke-width="1" x1="1501" x2="1552" y1="406" y2="418" /><line fill="none" stroke="black" stroke-linecap="square" stroke-width="1" x1="1522" x2="1559" y1="526" y2="521" /><line fill="none" stroke="black" stroke-linecap="square" stroke-width="1" x1="1415" x2="1444" y1="703" y2="674" /><line fill="none" stroke="black" stroke-linecap="square" stroke-width="1" x1="1413" x2="1453" y1="692" y2="698" /><line fill="none" stroke="black" stroke-linecap="square" stroke-width="1" x1="705" x2="710" y1="719" y2="622" /><line fill="none" stroke="black" stroke-linecap="square" stroke-width="1" x1="84" x2="174" y1="32" y2="39" /><line fill="none" stroke="black" stroke-linecap="square" stroke-width="1" x1="1426" x2="1510" y1="719" y2="712" /><line fill="none" stroke="black" stroke-linecap="square" stroke-width="1" x1="939" x2="945" y1="816" y2="864" /><line fill="none" stroke="black" stroke-linecap="square" stroke-width="1" x1="1431" x2="1489" y1="682" y2="689" /><line fill="none" stroke="black" stroke-linecap="square" stroke-width="1" x1="972" x2="1021" y1="1119" y2="1192" /><line fill="none" stroke="black" stroke-linecap="square" stroke-width="1" x1="976" x2="996" y1="1160" y2="1191" /><line fill="none" stroke="black" stroke-linecap="square" stroke-width="1" x1="1504" x2="1532" y1="413" y2="418" /><line fill="none" stroke="black" stroke-linecap="square" stroke-width="1" x1="950" x2="968" y1="1126" y2="1158" /><line fill="none" stroke="black" stroke-linecap="square" stroke-width="1" x1="1510" x2="1549" y1="697" y2="702" /><line fill="none" stroke="black" stroke-linecap="square" stroke-width="1" x1="1741" x2="1791" y1="483" y2="476" /><line fill="none" stroke="black" stroke-linecap="square" stroke-width="1" x1="1442" x2="1482" y1="744" y2="739" /><line fill="none" stroke="black" stroke-linecap="square" stroke-width="1" x1="1415" x2="1483" y1="687" y2="695" /><line fill="none" stroke="black" stroke-linecap="square" stroke-width="1" x1="371" x2="391" y1="127" y2="161" /><line fill="none" stroke="black" stroke-linecap="square" stroke-width="1" x1="629" x2="678" y1="972" y2="967" /><line fill="none" stroke="black" stroke-linecap="square" stroke-width="1" x1="1455" x2="1486" y1="711" y2="706" /><line fill="none" stroke="black" stroke-linecap="square" stroke-width="1" x1="1415" x2="1449" y1="727" y2="721" /><line fill="none" stroke="black" stroke-linecap="square" stroke-width="1" x1="1800" x2="1834" y1="293" y2="257" /><line fill="none" stroke="black" stroke-linecap="square" stroke-width="1" x1="1377" x2="1382" y1="128" y2="179" /><line fill="none" stroke="black" stroke-linecap="square" stroke-width="1" x1="956" x2="1021" y1="1197" y2="1130" /><line fill="none" stroke="black" stroke-linecap="square" stroke-width="1" x1="489" x2="515" y1="646" y2="673" /><line fill="none" stroke="black" stroke-linecap="square" stroke-width="1" x1="1598" x2="1607" y1="179" y2="139" /><line fill="none" stroke="black" stroke-linecap="square" stroke-width="1" x1="746" x2="777" y1="733" y2="790" /><line fill="none" stroke="black" stroke-linecap="square" stroke-width="1" x1="1587" x2="1613" y1="532" y2="504" /><line fill="none" stroke="black" stroke-linecap="square" stroke-width="1" x1="1530" x2="1575" y1="521" y2="526" /><line fill="none" stroke="black" stroke-linecap="square" stroke-width="1" x1="1696" x2="1722" y1="469" y2="475" /><line fill="none" stroke="black" stroke-linecap="square" stroke-width="1" x1="985" x2="1021" y1="1191" y2="1152" /><line fill="none" stroke="black" stroke-linecap="square" stroke-width="1" x1="631" x2="638" y1="1016" y2="967" /><line fill="none" stroke="black" stroke-linecap="square" stroke-width="1" x1="733" x2="751" y1="760" y2="791" /><line fill="none" stroke="black" stroke-linecap="square" stroke-width="1" x1="963" x2="1021" y1="1197" y2="1135" /><line fill="none" stroke="black" stroke-linecap="square" stroke-width="1" x1="829" x2="849" y1="909" y2="942" /><line fill="none" stroke="black" stroke-linecap="square" stroke-width="1" x1="961" x2="1021" y1="1197" y2="1133" /><line fill="none" stroke="black" stroke-linecap="square" stroke-width="1" x1="1456" x2="1484" y1="407" y2="412" /><line fill="none" stroke="black" stroke-linecap="square" stroke-width="1" x1="489" x2="515" y1="643" y2="669" /><line fill="none" stroke="black" stroke-linecap="square" stroke-width="1" x1="720" x2="749" y1="1025" y2="1013" /><line fill="none" stroke="black" stroke-linecap="square" stroke-width="1" x1="1000" x2="1021" y1="1119" y2="1145" /><line fill="none" stroke="black" stroke-linecap="square" stroke-width="1" x1="379" x2="385" y1="878" y2="942" /><line fill="none" stroke="black" stroke-linecap="square" stroke-width="1" x1="1486" x2="1541" y1="692" y2="697" /><line fill="none" stroke="black" stroke-linecap="square" stroke-width="1" x1="950" x2="991" y1="1163" y2="1120" /><line fill="none" stroke="black" stroke-linecap="square" stroke-width="1" x1="667" x2="694" y1="228" y2="234" /><line fill="none" stroke="black" stroke-linecap="square" stroke-width="1" x1="1893" x2="1925" y1="197" y2="164" /><line fill="none" stroke="black" stroke-linecap="square" stroke-width="1" x1="1507" x2="1552" y1="408" y2="419" /><line fill="none" stroke="black" stroke-linecap="square" stroke-width="1" x1="1415" x2="1452" y1="689" y2="694" /><line fill="none" stroke="black" stroke-linecap="square" stroke-width="1" x1="1694" x2="1722" y1="474" y2="480" /><line fill="none" stroke="black" stroke-linecap="square" stroke-width="1" x1="962" x2="994" y1="1168" y2="1135" /><line fill="none" stroke="black" stroke-linecap="square" stroke-width="1" x1="1456" x2="1483" y1="408" y2="414" /><line fill="none" stroke="black" stroke-linecap="square" stroke-width="1" x1="828" x2="847" y1="905" y2="934" /><line fill="none" stroke="black" stroke-linecap="square" stroke-width="1" x1="722" x2="771" y1="776" y2="771" /><line fill="none" stroke="black" stroke-linecap="square" stroke-width="1" x1="956" x2="989" y1="940" y2="926" /><line fill="none" stroke="black" stroke-linecap="square" stroke-width="1" x1="952" x2="997" y1="1143" y2="1191" /><line fill="none" stroke="black" stroke-linecap="square" stroke-width="1" x1="1766" x2="1791" y1="475" y2="480" /><line fill="none" stroke="black" stroke-linecap="square" stroke-width="1" x1="1452" x2="1482" y1="736" y2="724" /><line fill="none" stroke="black" stroke-linecap="square" stroke-width="1" x1="1893" x2="1919" y1="508" y2="514" /><line fill="none" stroke="black" stroke-linecap="square" stroke-width="1" x1="1466" x2="1472" y1="715" y2="690" /><line fill="none" stroke="black" stroke-linecap="square" stroke-width="1" x1="956" x2="985" y1="895" y2="885" /></svg>