<?xml version="1.0" encoding="utf-8" ?>
<svg baseProfile="full" fill="none" height="1110" version="1.1" viewBox="0 0 507 1110" width="507" xmlns="http://www.w3.org/2000/svg" xmlns:ev="http://www.w3.org/2001/xml-events" xmlns:xlink="http://www.w3.org/1999/xlink"><defs /><line fill="none" stroke="black" stroke-linecap="square" stroke-width="1" x1="445" x2="445" y1="969" y2="699" /><line fill="none" stroke="black" stroke-linecap="square" stroke-width="1" x1="198" x2="198" y1="968" y2="690" /><line fill="none" stroke="black" stroke-linecap="square" stroke-width="1" x1="444" x2="444" y1="165" y2="51" /><line fill="none" stroke="black" stroke-linecap="square" stroke-width="1" x1="25" x2="25" y1="1075" y2="981" /><line fill="none" stroke="black" stroke-linecap="square" stroke-width="1" x1="193" x2="193" y1="1076" y2="691" /><line fill="none" stroke="black" stroke-linecap="square" stroke-width="1" x1="269" x2="449" y1="437" y2="437" /><line fill="none" stroke="black" stroke-linecap="square" stroke-width="1" x1="26" x2="83" y1="1076" y2="1076" /><line fill="none" stroke="black" stroke-linecap="square" stroke-width="1" x1="28" x2="28" y1="859" y2="706" /><line fill="none" stroke="black" stroke-linecap="square" stroke-width="1" x1="210" x2="210" y1="584" y2="381" /><line fill="none" stroke="black" stroke-linecap="square" stroke-width="1" x1="115" x2="200" y1="1073" y2="1073" /><line fill="none" stroke="black" stroke-linecap="square" stroke-width="1" x1="269" x2="269" y1="441" y2="267" /><line fill="none" stroke="black" stroke-linecap="square" stroke-width="1" x1="33" x2="238" y1="508" y2="508" /><line fill="none" stroke="black" stroke-linecap="square" stroke-width="1" x1="270" x2="448" y1="443" y2="443" /><line fill="none" stroke="black" stroke-linecap="square" stroke-width="1" x1="300" x2="334" y1="829" y2="829" /><line fill="none" stroke="black" stroke-linecap="square" stroke-width="1" x1="205" x2="206" y1="665" y2="625" /><line fill="none" stroke="black" stroke-linecap="square" stroke-width="1" x1="283" x2="450" y1="978" y2="978" /><line fill="none" stroke="black" stroke-linecap="square" stroke-width="1" x1="36" x2="36" y1="658" y2="532" /><line fill="none" stroke="black" stroke-linecap="square" stroke-width="1" x1="30" x2="30" y1="659" y2="511" /><line fill="none" stroke="black" stroke-linecap="square" stroke-width="1" x1="43" x2="204" y1="514" y2="514" /><line fill="none" stroke="black" stroke-linecap="square" stroke-width="1" x1="281" x2="281" y1="264" y2="60" /><line fill="none" stroke="black" stroke-linecap="square" stroke-width="1" x1="320" x2="447" y1="164" y2="164" /><line fill="none" stroke="black" stroke-linecap="square" stroke-width="1" x1="46" x2="211" y1="626" y2="626" /><line fill="none" stroke="black" stroke-linecap="square" stroke-width="1" x1="25" x2="192" y1="823" y2="823" /><line fill="none" stroke="black" stroke-linecap="square" stroke-width="1" x1="25" x2="192" y1="829" y2="829" /><line fill="none" stroke="black" stroke-linecap="square" stroke-width="1" x1="25" x2="192" y1="905" y2="905" /><line fill="none" stroke="black" stroke-linecap="square" stroke-width="1" x1="322" x2="447" y1="159" y2="159" /><line fill="none" stroke="black" stroke-linecap="square" stroke-width="1" x1="280" x2="280" y1="1076" y2="1048" /><line fill="none" stroke="black" stroke-linecap="square" stroke-width="1" x1="351" x2="452" y1="1076" y2="1076" /><line fill="none" stroke="black" stroke-linecap="square" stroke-width="1" x1="284" x2="426" y1="279" y2="279" /><line fill="none" stroke="black" stroke-linecap="square" stroke-width="1" x1="280" x2="426" y1="284" y2="284" /><line fill="none" stroke="black" stroke-linecap="square" stroke-width="1" x1="48" x2="168" y1="899" y2="899" /><line fill="none" stroke="black" stroke-linecap="square" stroke-width="1" x1="25" x2="25" y1="730" y2="786" /><line fill="none" stroke="black" stroke-linecap="square" stroke-width="1" x1="275" x2="275" y1="397" y2="436" /><line fill="none" stroke="black" stroke-linecap="square" stroke-width="1" x1="232" x2="272" y1="1076" y2="1076" /><line fill="none" stroke="black" stroke-linecap="square" stroke-width="1" x1="83" x2="114" y1="1074" y2="1074" /><line fill="none" stroke="black" stroke-linecap="square" stroke-width="1" x1="445" x2="445" y1="363" y2="330" /><line fill="none" stroke="black" stroke-linecap="square" stroke-width="1" x1="335" x2="444" y1="39" y2="39" /><line fill="none" stroke="black" stroke-linecap="square" stroke-width="1" x1="444" x2="444" y1="515" y2="561" /><line fill="none" stroke="black" stroke-linecap="square" stroke-width="1" x1="203" x2="205" y1="343" y2="480" /><line fill="none" stroke="black" stroke-linecap="square" stroke-width="1" x1="447" x2="447" y1="359" y2="320" /><line fill="none" stroke="black" stroke-linecap="square" stroke-width="1" x1="208" x2="237" y1="1074" y2="1074" /><line fill="none" stroke="black" stroke-linecap="square" stroke-width="1" x1="352" x2="397" y1="1073" y2="1072" /><line fill="none" stroke="black" stroke-linecap="square" stroke-width="1" x1="45" x2="113" y1="630" y2="630" /><line fill="none" stroke="black" stroke-linecap="square" stroke-width="1" x1="333" x2="436" y1="33" y2="33" /><line fill="none" stroke="black" stroke-linecap="square" stroke-width="1" x1="280" x2="280" y1="302" y2="264" /><line fill="none" stroke="black" stroke-linecap="square" stroke-width="1" x1="450" x2="450" y1="1069" y2="972" /><line fill="none" stroke="black" stroke-linecap="square" stroke-width="1" x1="445" x2="445" y1="265" y2="209" /><line fill="none" stroke="black" stroke-linecap="square" stroke-width="1" x1="444" x2="445" y1="1073" y2="1009" /><line fill="none" stroke="black" stroke-linecap="square" stroke-width="1" x1="28" x2="28" y1="1014" y2="1068" /><line fill="none" stroke="black" stroke-linecap="square" stroke-width="1" x1="274" x2="275" y1="318" y2="374" /><line fill="none" stroke="black" stroke-linecap="square" stroke-width="1" x1="32" x2="32" y1="601" y2="522" /><line fill="none" stroke="black" stroke-linecap="square" stroke-width="1" x1="126" x2="126" y1="585" y2="511" /><line fill="none" stroke="black" stroke-linecap="square" stroke-width="1" x1="141" x2="141" y1="507" y2="436" /><line fill="none" stroke="black" stroke-linecap="square" stroke-width="1" x1="148" x2="148" y1="507" y2="432" /><line fill="none" stroke="black" stroke-linecap="square" stroke-width="1" x1="44" x2="117" y1="680" y2="680" /><line fill="none" stroke="black" stroke-linecap="square" stroke-width="1" x1="198" x2="199" y1="1056" y2="969" /><line fill="none" stroke="black" stroke-linecap="square" stroke-width="1" x1="354" x2="452" y1="980" y2="980" /><line fill="none" stroke="black" stroke-linecap="square" stroke-width="1" x1="212" x2="212" y1="480" y2="436" /><line fill="none" stroke="black" stroke-linecap="square" stroke-width="1" x1="444" x2="445" y1="378" y2="445" /><line fill="none" stroke="black" stroke-linecap="square" stroke-width="1" x1="129" x2="209" y1="584" y2="584" /><line fill="none" stroke="black" stroke-linecap="square" stroke-width="1" x1="39" x2="131" y1="561" y2="561" /><line fill="none" stroke="black" stroke-linecap="square" stroke-width="1" x1="273" x2="273" y1="1048" y2="988" /><line fill="none" stroke="black" stroke-linecap="square" stroke-width="1" x1="277" x2="278" y1="986" y2="1047" /><line fill="none" stroke="black" stroke-linecap="square" stroke-width="1" x1="88" x2="130" y1="674" y2="672" /><line fill="none" stroke="black" stroke-linecap="square" stroke-width="1" x1="439" x2="439" y1="292" y2="264" /><line fill="none" stroke="black" stroke-linecap="square" stroke-width="1" x1="118" x2="154" y1="678" y2="678" /><line fill="none" stroke="black" stroke-linecap="square" stroke-width="1" x1="426" x2="426" y1="292" y2="267" /><line fill="none" stroke="black" stroke-linecap="square" stroke-width="1" x1="40" x2="131" y1="566" y2="566" /><line fill="none" stroke="black" stroke-linecap="square" stroke-width="1" x1="240" x2="296" y1="1073" y2="1073" /><line fill="none" stroke="black" stroke-linecap="square" stroke-width="1" x1="184" x2="276" y1="348" y2="350" /><line fill="none" stroke="black" stroke-linecap="square" stroke-width="1" x1="26" x2="68" y1="679" y2="676" /><line fill="none" stroke="black" stroke-linecap="square" stroke-width="1" x1="131" x2="204" y1="578" y2="578" /><line fill="none" stroke="black" stroke-linecap="square" stroke-width="1" x1="28" x2="29" y1="922" y2="982" /><line fill="none" stroke="black" stroke-linecap="square" stroke-width="1" x1="25" x2="25" y1="969" y2="787" /><line fill="none" stroke="black" stroke-linecap="square" stroke-width="1" x1="445" x2="445" y1="201" y2="165" /><line fill="none" stroke="black" stroke-linecap="square" stroke-width="1" x1="444" x2="444" y1="698" y2="671" /><line fill="none" stroke="black" stroke-linecap="square" stroke-width="1" x1="114" x2="169" y1="1076" y2="1076" /><line fill="none" stroke="black" stroke-linecap="square" stroke-width="1" x1="263" x2="263" y1="311" y2="346" /><line fill="none" stroke="black" stroke-linecap="square" stroke-width="1" x1="444" x2="444" y1="639" y2="595" /><line fill="none" stroke="black" stroke-linecap="square" stroke-width="1" x1="447" x2="447" y1="675" y2="630" /><line fill="none" stroke="black" stroke-linecap="square" stroke-width="1" x1="41" x2="41" y1="631" y2="601" /><line fill="none" stroke="black" stroke-linecap="square" stroke-width="1" x1="185" x2="268" y1="343" y2="343" /><line fill="none" stroke="black" stroke-linecap="square" stroke-width="1" x1="45" x2="45" y1="625" y2="599" /><line fill="none" stroke="black" stroke-linecap="square" stroke-width="1" x1="131" x2="131" y1="577" y2="517" /><line fill="none" stroke="black" stroke-linecap="square" stroke-width="1" x1="70" x2="116" y1="667" y2="667" /><line fill="none" stroke="black" stroke-linecap="square" stroke-width="1" x1="319" x2="351" y1="1074" y2="1074" /><line fill="none" stroke="black" stroke-linecap="square" stroke-width="1" x1="133" x2="172" y1="998" y2="998" /><line fill="none" stroke="black" stroke-linecap="square" stroke-width="1" x1="144" x2="197" y1="437" y2="437" /><line fill="none" stroke="black" stroke-linecap="square" stroke-width="1" x1="85" x2="85" y1="625" y2="567" /><line fill="none" stroke="black" stroke-linecap="square" stroke-width="1" x1="117" x2="189" y1="635" y2="634" /><line fill="none" stroke="black" stroke-linecap="square" stroke-width="1" x1="210" x2="210" y1="662" y2="631" /><line fill="none" stroke="black" stroke-linecap="square" stroke-width="1" x1="272" x2="353" y1="998" y2="999" /><line fill="none" stroke="black" stroke-linecap="square" stroke-width="1" x1="68" x2="117" y1="669" y2="669" /><line fill="none" stroke="black" stroke-linecap="square" stroke-width="1" x1="146" x2="204" y1="432" y2="432" /><line fill="none" stroke="black" stroke-linecap="square" stroke-width="1" x1="204" x2="204" y1="522" y2="550" /><polyline fill="none" points="331,999 335,998 337,1000 335,1007 330,1005 330,1000" stroke="black" stroke-linecap="round" stroke-linejoin="round" stroke-width="1" /><polyline fill="none" points="139,999 144,998 146,1005 141,1007 138,1004 138,1000" stroke="black" stroke-linecap="round" stroke-linejoin="round" stroke-width="1" /><polyline fill="none" points="315,997 313,999 320,998 321,1001 313,1008 324,1008 321,1006 324,1002 329,1008 355,1006 351,997 343,998 350,999 350,1007 341,1005 337,997 316,997" stroke="black" stroke-linecap="round" stroke-linejoin="round" stroke-width="1" /><polyline fill="none" points="124,997 121,998 129,998 130,1001 122,1008 133,1008 129,1006 133,1001 138,1008 158,1005 160,1008 163,1005 161,997 151,1005 146,997 125,997" stroke="black" stroke-linecap="round" stroke-linejoin="round" stroke-width="1" /><polyline fill="none" points="371,995 365,1001 366,1005 371,1008 373,1006 367,1005 368,997 374,997 375,1005 377,1003 376,998 372,996" stroke="black" stroke-linecap="round" stroke-linejoin="round" stroke-width="1" /><polyline fill="none" points="101,995 96,1002 103,1008 106,1006 107,1001 106,997 102,995" stroke="black" stroke-linecap="round" stroke-linejoin="round" stroke-width="1" /><polyline fill="none" points="153,935 159,934 160,938 154,939 153,936" stroke="black" stroke-linecap="round" stroke-linejoin="round" stroke-width="1" /><polyline fill="none" points="140,931 144,930 146,932 144,939 138,937 139,932" stroke="black" stroke-linecap="round" stroke-linejoin="round" stroke-width="1" /><polyline fill="none" points="124,929 121,931 129,930 130,933 121,940 133,940 130,938 133,934 138,940 163,938 162,929 154,929 151,934 146,929 136,932 125,929" stroke="black" stroke-linecap="round" stroke-linejoin="round" stroke-width="1" /><polyline fill="none" points="100,928 103,927 106,932 103,938 98,936 99,929" stroke="black" stroke-linecap="round" stroke-linejoin="round" stroke-width="1" /><polyline fill="none" points="100,927 96,932 97,936 103,939 106,937 107,932 106,928 101,927" stroke="black" stroke-linecap="round" stroke-linejoin="round" stroke-width="1" /><polyline fill="none" points="152,857 156,856 158,860 153,862 152,858" stroke="black" stroke-linecap="round" stroke-linejoin="round" stroke-width="1" /><polyline fill="none" points="99,856 103,855 106,859 103,866 98,863 98,857" stroke="black" stroke-linecap="round" stroke-linejoin="round" stroke-width="1" /><polyline fill="none" points="137,854 142,853 144,859 138,862 136,855" stroke="black" stroke-linecap="round" stroke-linejoin="round" stroke-width="1" /><polyline fill="none" points="100,854 96,861 100,866 106,865 107,859 105,855 101,854" stroke="black" stroke-linecap="round" stroke-linejoin="round" stroke-width="1" /><polyline fill="none" points="121,852 119,854 126,853 127,856 119,863 130,863 127,859 131,856 136,863 146,860 158,863 161,860 160,852 122,852" stroke="black" stroke-linecap="round" stroke-linejoin="round" stroke-width="1" /><polyline fill="none" points="315,832 319,831 321,833 319,840 313,838 314,833" stroke="black" stroke-linecap="round" stroke-linejoin="round" stroke-width="1" /><polyline fill="none" points="371,830 365,836 366,840 371,843 377,837 376,833 372,831" stroke="black" stroke-linecap="round" stroke-linejoin="round" stroke-width="1" /><polyline fill="none" points="352,830 349,833 356,831 357,835 349,841 361,841 357,839 361,832 353,830" stroke="black" stroke-linecap="round" stroke-linejoin="round" stroke-width="1" /><polyline fill="none" points="329,830 326,832 334,831 335,834 326,841 338,841 335,839 338,832 330,830" stroke="black" stroke-linecap="round" stroke-linejoin="round" stroke-width="1" /><polyline fill="none" points="299,830 296,832 304,831 305,834 296,841 308,841 305,839 308,835 311,836 312,841 323,839 323,833 320,830 314,830 311,833 300,830" stroke="black" stroke-linecap="round" stroke-linejoin="round" stroke-width="1" /><polyline fill="none" points="99,776 103,775 106,779 103,786 98,783 98,777" stroke="black" stroke-linecap="round" stroke-linejoin="round" stroke-width="1" /><polyline fill="none" points="100,774 96,781 100,786 106,785 107,779 105,775 101,774" stroke="black" stroke-linecap="round" stroke-linejoin="round" stroke-width="1" /><polyline fill="none" points="121,730 125,729 127,731 125,738 120,736 120,731" stroke="black" stroke-linecap="round" stroke-linejoin="round" stroke-width="1" /><polyline fill="none" points="133,728 139,730 135,737 137,739 144,728 134,728" stroke="black" stroke-linecap="round" stroke-linejoin="round" stroke-width="1" /><polyline fill="none" points="105,728 103,730 110,729 111,732 103,739 114,739 111,737 114,733 117,734 119,739 127,739 130,736 130,731 127,728 118,730 106,728" stroke="black" stroke-linecap="round" stroke-linejoin="round" stroke-width="1" /><polyline fill="none" points="428,664 427,679 441,680 441,673 439,679 428,678 429,665 439,665 440,668 438,664 429,664" stroke="black" stroke-linecap="round" stroke-linejoin="round" stroke-width="1" /><polyline fill="none" points="87,620 91,620 90,629 87,628 87,621" stroke="black" stroke-linecap="round" stroke-linejoin="round" stroke-width="1" /><polyline fill="none" points="45,602 48,601 61,608 67,619 67,627 58,627 57,622 55,627 45,626 45,603" stroke="black" stroke-linecap="round" stroke-linejoin="round" stroke-width="1" /><polyline fill="none" points="94,594 115,593 115,602 106,612 93,616 92,606 96,605 92,603 91,595 93,594" stroke="black" stroke-linecap="round" stroke-linejoin="round" stroke-width="1" /><polyline fill="none" points="87,594 91,594 90,604 87,603 87,595" stroke="black" stroke-linecap="round" stroke-linejoin="round" stroke-width="1" /><polyline fill="none" points="359,548 354,551 359,552 359,559 361,559 360,548" stroke="black" stroke-linecap="round" stroke-linejoin="round" stroke-width="1" /><polyline fill="none" points="303,548 300,550 308,549 309,552 300,559 312,559 308,557 312,553 316,559 324,559 327,551 333,549 339,552 330,559 342,559 338,557 342,553 340,548 317,548 315,551 304,548" stroke="black" stroke-linecap="round" stroke-linejoin="round" stroke-width="1" /><polyline fill="none" points="369,544 372,543 376,547 372,553 367,551 368,544" stroke="black" stroke-linecap="round" stroke-linejoin="round" stroke-width="1" /><polyline fill="none" points="370,542 366,544 365,549 368,553 372,554 376,551 377,547 376,544 371,542" stroke="black" stroke-linecap="round" stroke-linejoin="round" stroke-width="1" /><polyline fill="none" points="369,356 372,355 376,359 372,365 366,361 368,356" stroke="black" stroke-linecap="round" stroke-linejoin="round" stroke-width="1" /><polyline fill="none" points="322,355 327,354 329,361 323,363 321,356" stroke="black" stroke-linecap="round" stroke-linejoin="round" stroke-width="1" /><polyline fill="none" points="370,354 366,357 365,361 366,364 372,366 377,361 376,357 371,354" stroke="black" stroke-linecap="round" stroke-linejoin="round" stroke-width="1" /><polyline fill="none" points="340,353 335,356 340,357 340,364 342,364 341,353" stroke="black" stroke-linecap="round" stroke-linejoin="round" stroke-width="1" /><polyline fill="none" points="306,353 304,355 311,354 312,357 304,364 315,364 312,360 316,357 319,358 320,364 328,364 331,361 331,356 328,353 319,355 307,353" stroke="black" stroke-linecap="round" stroke-linejoin="round" stroke-width="1" /><polyline fill="none" points="218,333 224,334 227,339 226,344 218,343 218,334" stroke="black" stroke-linecap="round" stroke-linejoin="round" stroke-width="1" /><polyline fill="none" points="441,281 446,281 444,290 441,289 441,282" stroke="black" stroke-linecap="round" stroke-linejoin="round" stroke-width="1" /><polyline fill="none" points="361,217 364,216 368,219 368,223 364,226 358,223 358,218 360,217" stroke="black" stroke-linecap="round" stroke-linejoin="round" stroke-width="1" /><polyline fill="none" points="362,215 356,221 359,225 365,226 370,221 363,215" stroke="black" stroke-linecap="round" stroke-linejoin="round" stroke-width="1" /><polyline fill="none" points="334,184 331,186 341,188 331,196 345,196 340,194 344,189 350,196 377,194 373,184 364,185 372,186 369,190 374,191 373,195 362,194 358,184 348,187 335,184" stroke="black" stroke-linecap="round" stroke-linejoin="round" stroke-width="1" /><polyline fill="none" points="378,119 375,121 384,120 385,123 375,131 388,131 384,129 388,124 387,120 379,119" stroke="black" stroke-linecap="round" stroke-linejoin="round" stroke-width="1" /><polyline fill="none" points="345,119 342,121 351,120 352,123 342,131 356,131 351,129 356,124 359,125 361,131 372,129 372,122 369,119 361,119 359,122 346,119" stroke="black" stroke-linecap="round" stroke-linejoin="round" stroke-width="1" /><polyline fill="none" points="361,97 366,97 368,102 364,104 359,103 358,98 360,97" stroke="black" stroke-linecap="round" stroke-linejoin="round" stroke-width="1" /><polyline fill="none" points="362,95 356,101 361,105 365,105 370,100 363,95" stroke="black" stroke-linecap="round" stroke-linejoin="round" stroke-width="1" /></svg>