<?xml version="1.0" encoding="utf-8" ?>
<svg baseProfile="full" height="696" version="1.1" viewBox="0 0 686 696" width="686" xmlns="http://www.w3.org/2000/svg" xmlns:ev="http://www.w3.org/2001/xml-events" xmlns:xlink="http://www.w3.org/1999/xlink"><defs /><line stroke="black" stroke-linecap="square" stroke-width="1" x1="69" x2="617" y1="675" y2="675" /><line stroke="black" stroke-linecap="square" stroke-width="1" x1="26" x2="661" y1="650" y2="650" /><line stroke="black" stroke-linecap="square" stroke-width="1" x1="618" x2="618" y1="679" y2="210" /><line stroke="black" stroke-linecap="square" stroke-width="1" x1="84" x2="587" y1="319" y2="319" /><line stroke="black" stroke-linecap="square" stroke-width="1" x1="27" x2="660" y1="652" y2="652" /><line stroke="black" stroke-linecap="square" stroke-width="1" x1="634" x2="634" y1="677" y2="16" /><line stroke="black" stroke-linecap="square" stroke-width="1" x1="114" x2="532" y1="665" y2="665" /><line stroke="black" stroke-linecap="square" stroke-width="1" x1="79" x2="603" y1="314" y2="314" /><line stroke="black" stroke-linecap="square" stroke-width="1" x1="31" x2="505" y1="169" y2="169" /><line stroke="black" stroke-linecap="square" stroke-width="1" x1="46" x2="46" y1="677" y2="153" /><line stroke="black" stroke-linecap="square" stroke-width="1" x1="621" x2="621" y1="679" y2="16" /><line stroke="black" stroke-linecap="square" stroke-width="1" x1="77" x2="610" y1="681" y2="681" /><line stroke="black" stroke-linecap="square" stroke-width="1" x1="637" x2="637" y1="677" y2="498" /><line stroke="black" stroke-linecap="square" stroke-width="1" x1="35" x2="651" y1="663" y2="663" /><line stroke="black" stroke-linecap="square" stroke-width="1" x1="214" x2="637" y1="21" y2="21" /><line stroke="black" stroke-linecap="square" stroke-width="1" x1="643" x2="643" y1="677" y2="325" /><line stroke="black" stroke-linecap="square" stroke-width="1" x1="31" x2="236" y1="167" y2="167" /><line stroke="black" stroke-linecap="square" stroke-width="1" x1="48" x2="48" y1="677" y2="153" /><line stroke="black" stroke-linecap="square" stroke-width="1" x1="28" x2="28" y1="633" y2="364" /><line stroke="black" stroke-linecap="square" stroke-width="1" x1="213" x2="637" y1="35" y2="35" /><line stroke="black" stroke-linecap="square" stroke-width="1" x1="211" x2="453" y1="159" y2="159" /><line stroke="black" stroke-linecap="square" stroke-width="1" x1="630" x2="630" y1="656" y2="16" /><line stroke="black" stroke-linecap="square" stroke-width="1" x1="650" x2="650" y1="676" y2="332" /><line stroke="black" stroke-linecap="square" stroke-width="1" x1="22" x2="22" y1="640" y2="356" /><line stroke="black" stroke-linecap="square" stroke-width="1" x1="50" x2="50" y1="677" y2="319" /><line stroke="black" stroke-linecap="square" stroke-width="1" x1="627" x2="627" y1="677" y2="16" /><line stroke="black" stroke-linecap="square" stroke-width="1" x1="625" x2="625" y1="678" y2="16" /><line stroke="black" stroke-linecap="square" stroke-width="1" x1="665" x2="665" y1="635" y2="361" /><line stroke="black" stroke-linecap="square" stroke-width="1" x1="223" x2="368" y1="253" y2="253" /><line stroke="black" stroke-linecap="square" stroke-width="1" x1="37" x2="37" y1="676" y2="153" /><line stroke="black" stroke-linecap="square" stroke-width="1" x1="68" x2="68" y1="621" y2="317" /><line stroke="black" stroke-linecap="square" stroke-width="1" x1="505" x2="505" y1="340" y2="24" /><line stroke="black" stroke-linecap="square" stroke-width="1" x1="658" x2="658" y1="635" y2="361" /><line stroke="black" stroke-linecap="square" stroke-width="1" x1="629" x2="629" y1="655" y2="16" /><line stroke="black" stroke-linecap="square" stroke-width="1" x1="349" x2="349" y1="563" y2="320" /><line stroke="black" stroke-linecap="square" stroke-width="1" x1="628" x2="628" y1="677" y2="16" /><line stroke="black" stroke-linecap="square" stroke-width="1" x1="42" x2="42" y1="509" y2="153" /><line stroke="black" stroke-linecap="square" stroke-width="1" x1="362" x2="362" y1="564" y2="323" /><line stroke="black" stroke-linecap="square" stroke-width="1" x1="222" x2="369" y1="250" y2="250" /><line stroke="black" stroke-linecap="square" stroke-width="1" x1="364" x2="364" y1="563" y2="320" /><line stroke="black" stroke-linecap="square" stroke-width="1" x1="81" x2="81" y1="331" y2="153" /><line stroke="black" stroke-linecap="square" stroke-width="1" x1="633" x2="633" y1="677" y2="16" /><line stroke="black" stroke-linecap="square" stroke-width="1" x1="41" x2="41" y1="677" y2="510" /><line stroke="black" stroke-linecap="square" stroke-width="1" x1="54" x2="57" y1="524" y2="320" /><line stroke="black" stroke-linecap="square" stroke-width="1" x1="632" x2="632" y1="677" y2="16" /><line stroke="black" stroke-linecap="square" stroke-width="1" x1="624" x2="624" y1="678" y2="314" /><line stroke="black" stroke-linecap="square" stroke-width="1" x1="631" x2="631" y1="550" y2="237" /><line stroke="black" stroke-linecap="square" stroke-width="1" x1="498" x2="498" y1="340" y2="91" /><line stroke="black" stroke-linecap="square" stroke-width="1" x1="635" x2="635" y1="677" y2="480" /><line stroke="black" stroke-linecap="square" stroke-width="1" x1="351" x2="351" y1="564" y2="323" /><line stroke="black" stroke-linecap="square" stroke-width="1" x1="65" x2="65" y1="621" y2="317" /><line stroke="black" stroke-linecap="square" stroke-width="1" x1="31" x2="31" y1="337" y2="154" /><line stroke="black" stroke-linecap="square" stroke-width="1" x1="636" x2="636" y1="500" y2="323" /><line stroke="black" stroke-linecap="square" stroke-width="1" x1="212" x2="637" y1="32" y2="32" /><line stroke="black" stroke-linecap="square" stroke-width="1" x1="639" x2="639" y1="677" y2="497" /><line stroke="black" stroke-linecap="square" stroke-width="1" x1="233" x2="233" y1="244" y2="24" /><line stroke="black" stroke-linecap="square" stroke-width="1" x1="32" x2="229" y1="153" y2="153" /><line stroke="black" stroke-linecap="square" stroke-width="1" x1="646" x2="646" y1="677" y2="507" /><line stroke="black" stroke-linecap="square" stroke-width="1" x1="441" x2="501" y1="155" y2="155" /><line stroke="black" stroke-linecap="square" stroke-width="1" x1="527" x2="623" y1="671" y2="671" /><line stroke="black" stroke-linecap="square" stroke-width="1" x1="626" x2="626" y1="677" y2="16" /><line stroke="black" stroke-linecap="square" stroke-width="1" x1="283" x2="370" y1="164" y2="164" /><line stroke="black" stroke-linecap="square" stroke-width="1" x1="427" x2="539" y1="27" y2="29" /><line stroke="black" stroke-linecap="square" stroke-width="1" x1="222" x2="369" y1="243" y2="243" /><line stroke="black" stroke-linecap="square" stroke-width="1" x1="645" x2="645" y1="512" y2="326" /><line stroke="black" stroke-linecap="square" stroke-width="1" x1="211" x2="624" y1="24" y2="24" /><line stroke="black" stroke-linecap="square" stroke-width="1" x1="354" x2="619" y1="23" y2="23" /><line stroke="black" stroke-linecap="square" stroke-width="1" x1="452" x2="570" y1="33" y2="33" /><line stroke="black" stroke-linecap="square" stroke-width="1" x1="622" x2="622" y1="660" y2="559" /><line stroke="black" stroke-linecap="square" stroke-width="1" x1="615" x2="615" y1="303" y2="122" /><line stroke="black" stroke-linecap="square" stroke-width="1" x1="56" x2="61" y1="618" y2="318" /><line stroke="black" stroke-linecap="square" stroke-width="1" x1="33" x2="33" y1="347" y2="157" /><line stroke="black" stroke-linecap="square" stroke-width="1" x1="623" x2="623" y1="220" y2="16" /><line stroke="black" stroke-linecap="square" stroke-width="1" x1="492" x2="492" y1="27" y2="71" /><line stroke="black" stroke-linecap="square" stroke-width="1" x1="212" x2="314" y1="30" y2="30" /><line stroke="black" stroke-linecap="square" stroke-width="1" x1="497" x2="617" y1="50" y2="50" /><line stroke="black" stroke-linecap="square" stroke-width="1" x1="211" x2="490" y1="25" y2="25" /><line stroke="black" stroke-linecap="square" stroke-width="1" x1="58" x2="62" y1="560" y2="318" /><line stroke="black" stroke-linecap="square" stroke-width="1" x1="496" x2="617" y1="340" y2="340" /><line stroke="black" stroke-linecap="square" stroke-width="1" x1="648" x2="648" y1="677" y2="505" /><line stroke="black" stroke-linecap="square" stroke-width="1" x1="496" x2="496" y1="283" y2="235" /><line stroke="black" stroke-linecap="square" stroke-width="1" x1="222" x2="222" y1="252" y2="23" /><line stroke="black" stroke-linecap="square" stroke-width="1" x1="79" x2="79" y1="332" y2="249" /><line stroke="black" stroke-linecap="square" stroke-width="1" x1="53" x2="58" y1="621" y2="320" /><line stroke="black" stroke-linecap="square" stroke-width="1" x1="368" x2="453" y1="161" y2="161" /><line stroke="black" stroke-linecap="square" stroke-width="1" x1="497" x2="622" y1="60" y2="60" /><line stroke="black" stroke-linecap="square" stroke-width="1" x1="63" x2="63" y1="410" y2="318" /><line stroke="black" stroke-linecap="square" stroke-width="1" x1="493" x2="618" y1="119" y2="119" /><line stroke="black" stroke-linecap="square" stroke-width="1" x1="244" x2="587" y1="26" y2="26" /><line stroke="black" stroke-linecap="square" stroke-width="1" x1="106" x2="258" y1="512" y2="512" /><line stroke="black" stroke-linecap="square" stroke-width="1" x1="109" x2="258" y1="514" y2="514" /><line stroke="black" stroke-linecap="square" stroke-width="1" x1="502" x2="502" y1="103" y2="36" /><line stroke="black" stroke-linecap="square" stroke-width="1" x1="496" x2="617" y1="337" y2="337" /><line stroke="black" stroke-linecap="square" stroke-width="1" x1="66" x2="66" y1="679" y2="654" /><line stroke="black" stroke-linecap="square" stroke-width="1" x1="380" x2="436" y1="167" y2="167" /><line stroke="black" stroke-linecap="square" stroke-width="1" x1="493" x2="637" y1="127" y2="127" /><line stroke="black" stroke-linecap="square" stroke-width="1" x1="223" x2="226" y1="33" y2="249" /><line stroke="black" stroke-linecap="square" stroke-width="1" x1="45" x2="45" y1="341" y2="155" /><line stroke="black" stroke-linecap="square" stroke-width="1" x1="70" x2="71" y1="156" y2="192" /><line stroke="black" stroke-linecap="square" stroke-width="1" x1="613" x2="613" y1="195" y2="139" /><line stroke="black" stroke-linecap="square" stroke-width="1" x1="496" x2="596" y1="330" y2="330" /><line stroke="black" stroke-linecap="square" stroke-width="1" x1="619" x2="619" y1="111" y2="16" /><line stroke="black" stroke-linecap="square" stroke-width="1" x1="612" x2="612" y1="320" y2="215" /><line stroke="black" stroke-linecap="square" stroke-width="1" x1="550" x2="605" y1="31" y2="31" /><line stroke="black" stroke-linecap="square" stroke-width="1" x1="230" x2="230" y1="168" y2="23" /><line stroke="black" stroke-linecap="square" stroke-width="1" x1="66" x2="66" y1="621" y2="480" /><line stroke="black" stroke-linecap="square" stroke-width="1" x1="60" x2="64" y1="411" y2="621" /><line stroke="black" stroke-linecap="square" stroke-width="1" x1="503" x2="503" y1="283" y2="235" /><line stroke="black" stroke-linecap="square" stroke-width="1" x1="213" x2="213" y1="166" y2="94" /><line stroke="black" stroke-linecap="square" stroke-width="1" x1="457" x2="482" y1="27" y2="27" /><line stroke="black" stroke-linecap="square" stroke-width="1" x1="55" x2="60" y1="578" y2="319" /><line stroke="black" stroke-linecap="square" stroke-width="1" x1="231" x2="231" y1="244" y2="107" /><line stroke="black" stroke-linecap="square" stroke-width="1" x1="212" x2="416" y1="29" y2="29" /><line stroke="black" stroke-linecap="square" stroke-width="1" x1="77" x2="79" y1="248" y2="155" /><line stroke="black" stroke-linecap="square" stroke-width="1" x1="511" x2="623" y1="526" y2="526" /><line stroke="black" stroke-linecap="square" stroke-width="1" x1="34" x2="34" y1="345" y2="156" /><line stroke="black" stroke-linecap="square" stroke-width="1" x1="513" x2="617" y1="524" y2="524" /><line stroke="black" stroke-linecap="square" stroke-width="1" x1="514" x2="622" y1="28" y2="28" /><line stroke="black" stroke-linecap="square" stroke-width="1" x1="38" x2="38" y1="344" y2="155" /><line stroke="black" stroke-linecap="square" stroke-width="1" x1="59" x2="63" y1="621" y2="427" /><line stroke="black" stroke-linecap="square" stroke-width="1" x1="81" x2="81" y1="620" y2="653" /><line stroke="black" stroke-linecap="square" stroke-width="1" x1="36" x2="36" y1="307" y2="155" /><line stroke="black" stroke-linecap="square" stroke-width="1" x1="58" x2="60" y1="620" y2="492" /><line stroke="black" stroke-linecap="square" stroke-width="1" x1="217" x2="217" y1="150" y2="26" /><line stroke="black" stroke-linecap="square" stroke-width="1" x1="622" x2="622" y1="116" y2="16" /><line stroke="black" stroke-linecap="square" stroke-width="1" x1="53" x2="53" y1="605" y2="549" /><line stroke="black" stroke-linecap="square" stroke-width="1" x1="64" x2="108" y1="480" y2="513" /><line stroke="black" stroke-linecap="square" stroke-width="1" x1="550" x2="604" y1="27" y2="27" /><line stroke="black" stroke-linecap="square" stroke-width="1" x1="39" x2="87" y1="159" y2="158" /><line stroke="black" stroke-linecap="square" stroke-width="1" x1="64" x2="64" y1="608" y2="343" /><line stroke="black" stroke-linecap="square" stroke-width="1" x1="495" x2="497" y1="235" y2="122" /><line stroke="black" stroke-linecap="square" stroke-width="1" x1="47" x2="88" y1="166" y2="166" /><line stroke="black" stroke-linecap="square" stroke-width="1" x1="39" x2="39" y1="344" y2="155" /><line stroke="black" stroke-linecap="square" stroke-width="1" x1="35" x2="35" y1="343" y2="155" /><line stroke="black" stroke-linecap="square" stroke-width="1" x1="1" x2="110" y1="429" y2="511" /><line stroke="black" stroke-linecap="square" stroke-width="1" x1="55" x2="55" y1="409" y2="320" /><line stroke="black" stroke-linecap="square" stroke-width="1" x1="119" x2="173" y1="155" y2="155" /><line stroke="black" stroke-linecap="square" stroke-width="1" x1="442" x2="479" y1="149" y2="148" /><line stroke="black" stroke-linecap="square" stroke-width="1" x1="369" x2="369" y1="252" y2="167" /><line stroke="black" stroke-linecap="square" stroke-width="1" x1="40" x2="40" y1="344" y2="155" /><line stroke="black" stroke-linecap="square" stroke-width="1" x1="211" x2="277" y1="163" y2="165" /><line stroke="black" stroke-linecap="square" stroke-width="1" x1="493" x2="551" y1="120" y2="121" /><line stroke="black" stroke-linecap="square" stroke-width="1" x1="637" x2="637" y1="344" y2="90" /><line stroke="black" stroke-linecap="square" stroke-width="1" x1="44" x2="44" y1="340" y2="155" /><line stroke="black" stroke-linecap="square" stroke-width="1" x1="493" x2="590" y1="125" y2="124" /><line stroke="black" stroke-linecap="square" stroke-width="1" x1="43" x2="43" y1="340" y2="155" /><line stroke="black" stroke-linecap="square" stroke-width="1" x1="607" x2="607" y1="121" y2="53" /><line stroke="black" stroke-linecap="square" stroke-width="1" x1="609" x2="609" y1="122" y2="53" /><line stroke="black" stroke-linecap="square" stroke-width="1" x1="496" x2="496" y1="310" y2="339" /><line stroke="black" stroke-linecap="square" stroke-width="1" x1="359" x2="359" y1="249" y2="166" /><line stroke="black" stroke-linecap="square" stroke-width="1" x1="395" x2="463" y1="31" y2="31" /><line stroke="black" stroke-linecap="square" stroke-width="1" x1="502" x2="503" y1="283" y2="320" /><line stroke="black" stroke-linecap="square" stroke-width="1" x1="173" x2="226" y1="156" y2="155" /><line stroke="black" stroke-linecap="square" stroke-width="1" x1="500" x2="500" y1="336" y2="310" /><line stroke="black" stroke-linecap="square" stroke-width="1" x1="497" x2="577" y1="58" y2="58" /><line stroke="black" stroke-linecap="square" stroke-width="1" x1="80" x2="126" y1="155" y2="157" /><line stroke="black" stroke-linecap="square" stroke-width="1" x1="326" x2="462" y1="30" y2="30" /><line stroke="black" stroke-linecap="square" stroke-width="1" x1="72" x2="72" y1="248" y2="193" /><line stroke="black" stroke-linecap="square" stroke-width="1" x1="52" x2="52" y1="649" y2="622" /><line stroke="black" stroke-linecap="square" stroke-width="1" x1="74" x2="74" y1="248" y2="156" /><line stroke="black" stroke-linecap="square" stroke-width="1" x1="55" x2="163" y1="653" y2="653" /><line stroke="black" stroke-linecap="square" stroke-width="1" x1="293" x2="437" y1="33" y2="33" /><line stroke="black" stroke-linecap="square" stroke-width="1" x1="54" x2="54" y1="468" y2="404" /><line stroke="black" stroke-linecap="square" stroke-width="1" x1="34" x2="162" y1="662" y2="662" /><line stroke="black" stroke-linecap="square" stroke-width="1" x1="510" x2="616" y1="52" y2="54" /><line stroke="black" stroke-linecap="square" stroke-width="1" x1="47" x2="87" y1="163" y2="163" /><line stroke="black" stroke-linecap="square" stroke-width="1" x1="32" x2="87" y1="160" y2="161" /><line stroke="black" stroke-linecap="square" stroke-width="1" x1="212" x2="413" y1="27" y2="27" /><line stroke="black" stroke-linecap="square" stroke-width="1" x1="531" x2="587" y1="243" y2="243" /><line stroke="black" stroke-linecap="square" stroke-width="1" x1="492" x2="494" y1="151" y2="92" /></svg>