<?xml version="1.0" encoding="utf-8" ?>
<svg baseProfile="full" fill="none" height="1340" version="1.1" viewBox="0 0 798 1340" width="798" xmlns="http://www.w3.org/2000/svg" xmlns:ev="http://www.w3.org/2001/xml-events" xmlns:xlink="http://www.w3.org/1999/xlink"><defs /><line fill="none" stroke="black" stroke-linecap="square" stroke-width="1" x1="748" x2="748" y1="1228" y2="87" /><line fill="none" stroke="black" stroke-linecap="square" stroke-width="1" x1="744" x2="744" y1="384" y2="285" /><line fill="none" stroke="black" stroke-linecap="square" stroke-width="1" x1="373" x2="373" y1="699" y2="229" /><line fill="none" stroke="black" stroke-linecap="square" stroke-width="1" x1="745" x2="745" y1="1068" y2="1028" /><line fill="none" stroke="black" stroke-linecap="square" stroke-width="1" x1="258" x2="355" y1="1295" y2="1295" /><line fill="none" stroke="black" stroke-linecap="square" stroke-width="1" x1="107" x2="107" y1="924" y2="811" /><line fill="none" stroke="black" stroke-linecap="square" stroke-width="1" x1="488" x2="744" y1="760" y2="760" /><line fill="none" stroke="black" stroke-linecap="square" stroke-width="1" x1="364" x2="364" y1="700" y2="497" /><line fill="none" stroke="black" stroke-linecap="square" stroke-width="1" x1="488" x2="744" y1="754" y2="754" /><line fill="none" stroke="black" stroke-linecap="square" stroke-width="1" x1="100" x2="374" y1="952" y2="952" /><line fill="none" stroke="black" stroke-linecap="square" stroke-width="1" x1="724" x2="724" y1="98" y2="36" /><line fill="none" stroke="black" stroke-linecap="square" stroke-width="1" x1="727" x2="727" y1="100" y2="36" /><line fill="none" stroke="black" stroke-linecap="square" stroke-width="1" x1="493" x2="571" y1="36" y2="36" /><line fill="none" stroke="black" stroke-linecap="square" stroke-width="1" x1="100" x2="375" y1="945" y2="945" /><line fill="none" stroke="black" stroke-linecap="square" stroke-width="1" x1="745" x2="745" y1="873" y2="831" /><line fill="none" stroke="black" stroke-linecap="square" stroke-width="1" x1="463" x2="463" y1="818" y2="756" /><line fill="none" stroke="black" stroke-linecap="square" stroke-width="1" x1="515" x2="690" y1="429" y2="429" /><line fill="none" stroke="black" stroke-linecap="square" stroke-width="1" x1="511" x2="745" y1="424" y2="424" /><line fill="none" stroke="black" stroke-linecap="square" stroke-width="1" x1="110" x2="110" y1="1074" y2="811" /><line fill="none" stroke="black" stroke-linecap="square" stroke-width="1" x1="466" x2="466" y1="820" y2="754" /><line fill="none" stroke="black" stroke-linecap="square" stroke-width="1" x1="375" x2="375" y1="831" y2="739" /><line fill="none" stroke="black" stroke-linecap="square" stroke-width="1" x1="488" x2="587" y1="812" y2="812" /><line fill="none" stroke="black" stroke-linecap="square" stroke-width="1" x1="487" x2="589" y1="808" y2="808" /><line fill="none" stroke="black" stroke-linecap="square" stroke-width="1" x1="744" x2="744" y1="767" y2="683" /><line fill="none" stroke="black" stroke-linecap="square" stroke-width="1" x1="745" x2="745" y1="98" y2="36" /><line fill="none" stroke="black" stroke-linecap="square" stroke-width="1" x1="101" x2="228" y1="811" y2="811" /><line fill="none" stroke="black" stroke-linecap="square" stroke-width="1" x1="368" x2="368" y1="924" y2="880" /><line fill="none" stroke="black" stroke-linecap="square" stroke-width="1" x1="230" x2="398" y1="228" y2="228" /><line fill="none" stroke="black" stroke-linecap="square" stroke-width="1" x1="101" x2="101" y1="1138" y2="974" /><line fill="none" stroke="black" stroke-linecap="square" stroke-width="1" x1="657" x2="727" y1="1280" y2="1280" /><line fill="none" stroke="black" stroke-linecap="square" stroke-width="1" x1="622" x2="673" y1="812" y2="812" /><line fill="none" stroke="black" stroke-linecap="square" stroke-width="1" x1="99" x2="231" y1="814" y2="814" /><line fill="none" stroke="black" stroke-linecap="square" stroke-width="1" x1="98" x2="98" y1="1138" y2="974" /><line fill="none" stroke="black" stroke-linecap="square" stroke-width="1" x1="230" x2="375" y1="225" y2="225" /><line fill="none" stroke="black" stroke-linecap="square" stroke-width="1" x1="91" x2="91" y1="1296" y2="1174" /><line fill="none" stroke="black" stroke-linecap="square" stroke-width="1" x1="229" x2="373" y1="151" y2="151" /><line fill="none" stroke="black" stroke-linecap="square" stroke-width="1" x1="100" x2="229" y1="817" y2="817" /><line fill="none" stroke="black" stroke-linecap="square" stroke-width="1" x1="100" x2="100" y1="925" y2="812" /><line fill="none" stroke="black" stroke-linecap="square" stroke-width="1" x1="230" x2="372" y1="233" y2="233" /><line fill="none" stroke="black" stroke-linecap="square" stroke-width="1" x1="232" x2="373" y1="148" y2="148" /><line fill="none" stroke="black" stroke-linecap="square" stroke-width="1" x1="111" x2="228" y1="820" y2="820" /><line fill="none" stroke="black" stroke-linecap="square" stroke-width="1" x1="362" x2="362" y1="499" y2="454" /><line fill="none" stroke="black" stroke-linecap="square" stroke-width="1" x1="745" x2="745" y1="966" y2="924" /><line fill="none" stroke="black" stroke-linecap="square" stroke-width="1" x1="707" x2="707" y1="344" y2="309" /><line fill="none" stroke="black" stroke-linecap="square" stroke-width="1" x1="724" x2="724" y1="380" y2="287" /><line fill="none" stroke="black" stroke-linecap="square" stroke-width="1" x1="472" x2="472" y1="307" y2="225" /><line fill="none" stroke="black" stroke-linecap="square" stroke-width="1" x1="94" x2="204" y1="1295" y2="1295" /><line fill="none" stroke="black" stroke-linecap="square" stroke-width="1" x1="359" x2="359" y1="497" y2="420" /><line fill="none" stroke="black" stroke-linecap="square" stroke-width="1" x1="653" x2="709" y1="1295" y2="1295" /><line fill="none" stroke="black" stroke-linecap="square" stroke-width="1" x1="744" x2="744" y1="523" y2="425" /><line fill="none" stroke="black" stroke-linecap="square" stroke-width="1" x1="107" x2="107" y1="1066" y2="1122" /><line fill="none" stroke="black" stroke-linecap="square" stroke-width="1" x1="566" x2="623" y1="42" y2="42" /><line fill="none" stroke="black" stroke-linecap="square" stroke-width="1" x1="270" x2="305" y1="157" y2="157" /><line fill="none" stroke="black" stroke-linecap="square" stroke-width="1" x1="738" x2="738" y1="569" y2="537" /><line fill="none" stroke="black" stroke-linecap="square" stroke-width="1" x1="282" x2="374" y1="831" y2="831" /><line fill="none" stroke="black" stroke-linecap="square" stroke-width="1" x1="463" x2="463" y1="388" y2="227" /><line fill="none" stroke="black" stroke-linecap="square" stroke-width="1" x1="744" x2="744" y1="1069" y2="1100" /><line fill="none" stroke="black" stroke-linecap="square" stroke-width="1" x1="618" x2="744" y1="36" y2="36" /><line fill="none" stroke="black" stroke-linecap="square" stroke-width="1" x1="375" x2="375" y1="881" y2="926" /><line fill="none" stroke="black" stroke-linecap="square" stroke-width="1" x1="409" x2="461" y1="1295" y2="1295" /><line fill="none" stroke="black" stroke-linecap="square" stroke-width="1" x1="204" x2="259" y1="1287" y2="1287" /><line fill="none" stroke="black" stroke-linecap="square" stroke-width="1" x1="109" x2="109" y1="1281" y2="1172" /><line fill="none" stroke="black" stroke-linecap="square" stroke-width="1" x1="350" x2="350" y1="888" y2="849" /><line fill="none" stroke="black" stroke-linecap="square" stroke-width="1" x1="467" x2="467" y1="353" y2="392" /><line fill="none" stroke="black" stroke-linecap="square" stroke-width="1" x1="727" x2="727" y1="382" y2="285" /><line fill="none" stroke="black" stroke-linecap="square" stroke-width="1" x1="281" x2="283" y1="925" y2="819" /><line fill="none" stroke="black" stroke-linecap="square" stroke-width="1" x1="745" x2="745" y1="285" y2="243" /><line fill="none" stroke="black" stroke-linecap="square" stroke-width="1" x1="373" x2="374" y1="124" y2="87" /><line fill="none" stroke="black" stroke-linecap="square" stroke-width="1" x1="466" x2="466" y1="352" y2="224" /><line fill="none" stroke="black" stroke-linecap="square" stroke-width="1" x1="744" x2="744" y1="1162" y2="1203" /><line fill="none" stroke="black" stroke-linecap="square" stroke-width="1" x1="287" x2="287" y1="879" y2="919" /><line fill="none" stroke="black" stroke-linecap="square" stroke-width="1" x1="355" x2="411" y1="1287" y2="1288" /><line fill="none" stroke="black" stroke-linecap="square" stroke-width="1" x1="469" x2="469" y1="307" y2="224" /><line fill="none" stroke="black" stroke-linecap="square" stroke-width="1" x1="727" x2="727" y1="1246" y2="1282" /><line fill="none" stroke="black" stroke-linecap="square" stroke-width="1" x1="368" x2="368" y1="826" y2="741" /><line fill="none" stroke="black" stroke-linecap="square" stroke-width="1" x1="568" x2="626" y1="1291" y2="1291" /><line fill="none" stroke="black" stroke-linecap="square" stroke-width="1" x1="238" x2="238" y1="232" y2="156" /><line fill="none" stroke="black" stroke-linecap="square" stroke-width="1" x1="307" x2="349" y1="156" y2="156" /><line fill="none" stroke="black" stroke-linecap="square" stroke-width="1" x1="287" x2="367" y1="826" y2="826" /><line fill="none" stroke="black" stroke-linecap="square" stroke-width="1" x1="736" x2="736" y1="566" y2="537" /><line fill="none" stroke="black" stroke-linecap="square" stroke-width="1" x1="745" x2="745" y1="1161" y2="1120" /><line fill="none" stroke="black" stroke-linecap="square" stroke-width="1" x1="392" x2="466" y1="53" y2="53" /><line fill="none" stroke="black" stroke-linecap="square" stroke-width="1" x1="571" x2="625" y1="1289" y2="1289" /><line fill="none" stroke="black" stroke-linecap="square" stroke-width="1" x1="488" x2="523" y1="431" y2="431" /><line fill="none" stroke="black" stroke-linecap="square" stroke-width="1" x1="229" x2="305" y1="154" y2="154" /><line fill="none" stroke="black" stroke-linecap="square" stroke-width="1" x1="366" x2="401" y1="36" y2="36" /><line fill="none" stroke="black" stroke-linecap="square" stroke-width="1" x1="589" x2="619" y1="807" y2="807" /><line fill="none" stroke="black" stroke-linecap="square" stroke-width="1" x1="395" x2="466" y1="50" y2="50" /><line fill="none" stroke="black" stroke-linecap="square" stroke-width="1" x1="526" x2="594" y1="776" y2="776" /><line fill="none" stroke="black" stroke-linecap="square" stroke-width="1" x1="364" x2="364" y1="368" y2="396" /><line fill="none" stroke="black" stroke-linecap="square" stroke-width="1" x1="229" x2="230" y1="152" y2="235" /><line fill="none" stroke="black" stroke-linecap="square" stroke-width="1" x1="110" x2="110" y1="1101" y2="1134" /><line fill="none" stroke="black" stroke-linecap="square" stroke-width="1" x1="531" x2="570" y1="1294" y2="1295" /><line fill="none" stroke="black" stroke-linecap="square" stroke-width="1" x1="363" x2="364" y1="156" y2="98" /><line fill="none" stroke="black" stroke-linecap="square" stroke-width="1" x1="744" x2="745" y1="225" y2="129" /><line fill="none" stroke="black" stroke-linecap="square" stroke-width="1" x1="107" x2="107" y1="1017" y2="1065" /><line fill="none" stroke="black" stroke-linecap="square" stroke-width="1" x1="744" x2="745" y1="1204" y2="1249" /><line fill="none" stroke="black" stroke-linecap="square" stroke-width="1" x1="257" x2="288" y1="819" y2="819" /><line fill="none" stroke="black" stroke-linecap="square" stroke-width="1" x1="675" x2="726" y1="42" y2="42" /><line fill="none" stroke="black" stroke-linecap="square" stroke-width="1" x1="107" x2="107" y1="944" y2="1000" /><line fill="none" stroke="black" stroke-linecap="square" stroke-width="1" x1="345" x2="345" y1="881" y2="849" /><line fill="none" stroke="black" stroke-linecap="square" stroke-width="1" x1="364" x2="364" y1="330" y2="367" /><line fill="none" stroke="black" stroke-linecap="square" stroke-width="1" x1="216" x2="287" y1="829" y2="829" /><line fill="none" stroke="black" stroke-linecap="square" stroke-width="1" x1="724" x2="724" y1="1237" y2="1279" /><line fill="none" stroke="black" stroke-linecap="square" stroke-width="1" x1="449" x2="478" y1="36" y2="36" /><line fill="none" stroke="black" stroke-linecap="square" stroke-width="1" x1="359" x2="360" y1="234" y2="267" /><line fill="none" stroke="black" stroke-linecap="square" stroke-width="1" x1="744" x2="745" y1="585" y2="683" /><line fill="none" stroke="black" stroke-linecap="square" stroke-width="1" x1="702" x2="702" y1="776" y2="812" /><polyline fill="none" points="206,1242 213,1242 214,1247 210,1250 204,1247 205,1242" stroke="black" stroke-linecap="round" stroke-linejoin="round" stroke-width="1" /><polyline fill="none" points="207,1240 202,1244 202,1247 210,1251 216,1247 216,1244 208,1240" stroke="black" stroke-linecap="round" stroke-linejoin="round" stroke-width="1" /><polyline fill="none" points="740,1229 746,1229 745,1296 657,1295 658,1282 727,1282 727,1230 739,1229" stroke="black" stroke-linecap="round" stroke-linejoin="round" stroke-width="1" /><polyline fill="none" points="667,1218 673,1217 676,1223 669,1226 665,1223 666,1219" stroke="black" stroke-linecap="round" stroke-linejoin="round" stroke-width="1" /><polyline fill="none" points="668,1216 663,1221 665,1226 676,1226 678,1223 676,1217 669,1216" stroke="black" stroke-linecap="round" stroke-linejoin="round" stroke-width="1" /><polyline fill="none" points="93,1175 110,1177 110,1282 168,1282 169,1296 93,1295 93,1176" stroke="black" stroke-linecap="round" stroke-linejoin="round" stroke-width="1" /><polyline fill="none" points="93,1170 92,1297 204,1296 174,1296 171,1281 130,1281 129,1264 111,1262 111,1173 94,1170" stroke="black" stroke-linecap="round" stroke-linejoin="round" stroke-width="1" /><polyline fill="none" points="206,1064 213,1064 214,1069 210,1072 204,1069 205,1064" stroke="black" stroke-linecap="round" stroke-linejoin="round" stroke-width="1" /><polyline fill="none" points="207,1061 202,1066 203,1071 208,1073 214,1072 216,1069 215,1064 208,1061" stroke="black" stroke-linecap="round" stroke-linejoin="round" stroke-width="1" /><polyline fill="none" points="231,896 236,895 240,901 233,904 228,901 230,897" stroke="black" stroke-linecap="round" stroke-linejoin="round" stroke-width="1" /><polyline fill="none" points="232,894 227,899 228,903 234,906 240,904 240,897 233,894" stroke="black" stroke-linecap="round" stroke-linejoin="round" stroke-width="1" /><polyline fill="none" points="348,849 343,850 349,888 369,887 369,925 373,927 375,881 350,879 349,849" stroke="black" stroke-linecap="round" stroke-linejoin="round" stroke-width="1" /><polyline fill="none" points="201,849 198,852 207,851 208,854 203,856 208,857 209,860 197,860 201,863 213,861 212,851 202,849" stroke="black" stroke-linecap="round" stroke-linejoin="round" stroke-width="1" /><polyline fill="none" points="663,765 660,767 670,767 670,770 666,772 671,772 672,776 660,776 663,778 675,777 675,767 664,765" stroke="black" stroke-linecap="round" stroke-linejoin="round" stroke-width="1" /><polyline fill="none" points="567,765 564,767 574,766 575,770 564,778 579,778 574,777 573,774 579,771 580,767 568,765" stroke="black" stroke-linecap="round" stroke-linejoin="round" stroke-width="1" /><polyline fill="none" points="554,765 548,769 553,770 553,777 556,778 555,765" stroke="black" stroke-linecap="round" stroke-linejoin="round" stroke-width="1" /><polyline fill="none" points="588,757 595,757 594,788 590,786 590,761 588,758" stroke="black" stroke-linecap="round" stroke-linejoin="round" stroke-width="1" /><polyline fill="none" points="667,328 673,327 676,333 669,336 665,333 666,329" stroke="black" stroke-linecap="round" stroke-linejoin="round" stroke-width="1" /><polyline fill="none" points="668,326 665,328 665,335 670,338 676,336 678,333 676,327 669,326" stroke="black" stroke-linecap="round" stroke-linejoin="round" stroke-width="1" /><polyline fill="none" points="592,272 598,271 598,277 593,278 591,273" stroke="black" stroke-linecap="round" stroke-linejoin="round" stroke-width="1" /><polyline fill="none" points="592,98 598,97 599,101 592,102 591,99" stroke="black" stroke-linecap="round" stroke-linejoin="round" stroke-width="1" /><polyline fill="none" points="592,92 598,91 599,95 593,96 592,93" stroke="black" stroke-linecap="round" stroke-linejoin="round" stroke-width="1" /><polyline fill="none" points="718,39 746,39 745,99 727,96 727,43 718,40" stroke="black" stroke-linecap="round" stroke-linejoin="round" stroke-width="1" /></svg>