<?xml version="1.0" encoding="utf-8" ?>
<svg baseProfile="full" fill="none" height="1131" version="1.1" viewBox="0 0 654 1131" width="654" xmlns="http://www.w3.org/2000/svg" xmlns:ev="http://www.w3.org/2001/xml-events" xmlns:xlink="http://www.w3.org/1999/xlink"><defs /><line fill="none" stroke="black" stroke-linecap="square" stroke-width="1" x1="619" x2="619" y1="1098" y2="41" /><line fill="none" stroke="black" stroke-linecap="square" stroke-width="1" x1="616" x2="616" y1="785" y2="582" /><line fill="none" stroke="black" stroke-linecap="square" stroke-width="1" x1="307" x2="307" y1="606" y2="186" /><line fill="none" stroke="black" stroke-linecap="square" stroke-width="1" x1="304" x2="304" y1="606" y2="182" /><line fill="none" stroke="black" stroke-linecap="square" stroke-width="1" x1="209" x2="287" y1="1099" y2="1099" /><line fill="none" stroke="black" stroke-linecap="square" stroke-width="1" x1="299" x2="299" y1="598" y2="427" /><line fill="none" stroke="black" stroke-linecap="square" stroke-width="1" x1="296" x2="296" y1="143" y2="89" /><line fill="none" stroke="black" stroke-linecap="square" stroke-width="1" x1="617" x2="617" y1="249" y2="214" /><line fill="none" stroke="black" stroke-linecap="square" stroke-width="1" x1="515" x2="617" y1="1096" y2="1096" /><line fill="none" stroke="black" stroke-linecap="square" stroke-width="1" x1="380" x2="380" y1="940" y2="913" /><line fill="none" stroke="black" stroke-linecap="square" stroke-width="1" x1="401" x2="611" y1="642" y2="642" /><line fill="none" stroke="black" stroke-linecap="square" stroke-width="1" x1="299" x2="467" y1="39" y2="39" /><line fill="none" stroke="black" stroke-linecap="square" stroke-width="1" x1="84" x2="84" y1="961" y2="690" /><line fill="none" stroke="black" stroke-linecap="square" stroke-width="1" x1="609" x2="609" y1="154" y2="91" /><line fill="none" stroke="black" stroke-linecap="square" stroke-width="1" x1="383" x2="383" y1="336" y2="197" /><line fill="none" stroke="black" stroke-linecap="square" stroke-width="1" x1="610" x2="610" y1="688" y2="648" /><line fill="none" stroke="black" stroke-linecap="square" stroke-width="1" x1="297" x2="468" y1="42" y2="42" /><line fill="none" stroke="black" stroke-linecap="square" stroke-width="1" x1="75" x2="307" y1="802" y2="802" /><line fill="none" stroke="black" stroke-linecap="square" stroke-width="1" x1="401" x2="609" y1="648" y2="648" /><line fill="none" stroke="black" stroke-linecap="square" stroke-width="1" x1="611" x2="611" y1="745" y2="704" /><line fill="none" stroke="black" stroke-linecap="square" stroke-width="1" x1="602" x2="602" y1="330" y2="249" /><line fill="none" stroke="black" stroke-linecap="square" stroke-width="1" x1="617" x2="617" y1="1099" y2="1033" /><line fill="none" stroke="black" stroke-linecap="square" stroke-width="1" x1="403" x2="616" y1="372" y2="372" /><line fill="none" stroke="black" stroke-linecap="square" stroke-width="1" x1="81" x2="81" y1="961" y2="930" /><line fill="none" stroke="black" stroke-linecap="square" stroke-width="1" x1="76" x2="76" y1="978" y2="828" /><line fill="none" stroke="black" stroke-linecap="square" stroke-width="1" x1="75" x2="306" y1="805" y2="805" /><line fill="none" stroke="black" stroke-linecap="square" stroke-width="1" x1="419" x2="617" y1="365" y2="365" /><line fill="none" stroke="black" stroke-linecap="square" stroke-width="1" x1="75" x2="295" y1="809" y2="809" /><line fill="none" stroke="black" stroke-linecap="square" stroke-width="1" x1="599" x2="599" y1="326" y2="252" /><line fill="none" stroke="black" stroke-linecap="square" stroke-width="1" x1="616" x2="617" y1="149" y2="40" /><line fill="none" stroke="black" stroke-linecap="square" stroke-width="1" x1="296" x2="297" y1="531" y2="598" /><line fill="none" stroke="black" stroke-linecap="square" stroke-width="1" x1="401" x2="579" y1="644" y2="644" /><line fill="none" stroke="black" stroke-linecap="square" stroke-width="1" x1="380" x2="380" y1="697" y2="644" /><line fill="none" stroke="black" stroke-linecap="square" stroke-width="1" x1="421" x2="612" y1="369" y2="369" /><line fill="none" stroke="black" stroke-linecap="square" stroke-width="1" x1="300" x2="300" y1="708" y2="634" /><line fill="none" stroke="black" stroke-linecap="square" stroke-width="1" x1="296" x2="297" y1="258" y2="198" /><line fill="none" stroke="black" stroke-linecap="square" stroke-width="1" x1="336" x2="404" y1="1095" y2="1096" /><line fill="none" stroke="black" stroke-linecap="square" stroke-width="1" x1="184" x2="307" y1="134" y2="134" /><line fill="none" stroke="black" stroke-linecap="square" stroke-width="1" x1="503" x2="543" y1="1091" y2="1091" /><line fill="none" stroke="black" stroke-linecap="square" stroke-width="1" x1="74" x2="74" y1="978" y2="825" /><line fill="none" stroke="black" stroke-linecap="square" stroke-width="1" x1="75" x2="75" y1="825" y2="691" /><line fill="none" stroke="black" stroke-linecap="square" stroke-width="1" x1="184" x2="321" y1="201" y2="201" /><line fill="none" stroke="black" stroke-linecap="square" stroke-width="1" x1="114" x2="170" y1="698" y2="698" /><line fill="none" stroke="black" stroke-linecap="square" stroke-width="1" x1="78" x2="185" y1="693" y2="693" /><line fill="none" stroke="black" stroke-linecap="square" stroke-width="1" x1="574" x2="613" y1="690" y2="690" /><line fill="none" stroke="black" stroke-linecap="square" stroke-width="1" x1="185" x2="306" y1="207" y2="207" /><line fill="none" stroke="black" stroke-linecap="square" stroke-width="1" x1="517" x2="616" y1="1099" y2="1099" /><line fill="none" stroke="black" stroke-linecap="square" stroke-width="1" x1="81" x2="81" y1="912" y2="690" /><line fill="none" stroke="black" stroke-linecap="square" stroke-width="1" x1="298" x2="300" y1="261" y2="227" /><line fill="none" stroke="black" stroke-linecap="square" stroke-width="1" x1="467" x2="602" y1="47" y2="47" /><line fill="none" stroke="black" stroke-linecap="square" stroke-width="1" x1="183" x2="307" y1="136" y2="136" /><line fill="none" stroke="black" stroke-linecap="square" stroke-width="1" x1="206" x2="247" y1="141" y2="141" /><line fill="none" stroke="black" stroke-linecap="square" stroke-width="1" x1="513" x2="585" y1="691" y2="691" /><line fill="none" stroke="black" stroke-linecap="square" stroke-width="1" x1="402" x2="490" y1="688" y2="688" /><line fill="none" stroke="black" stroke-linecap="square" stroke-width="1" x1="513" x2="601" y1="44" y2="44" /><line fill="none" stroke="black" stroke-linecap="square" stroke-width="1" x1="487" x2="550" y1="689" y2="687" /><line fill="none" stroke="black" stroke-linecap="square" stroke-width="1" x1="78" x2="78" y1="785" y2="690" /><line fill="none" stroke="black" stroke-linecap="square" stroke-width="1" x1="611" x2="611" y1="153" y2="115" /><line fill="none" stroke="black" stroke-linecap="square" stroke-width="1" x1="83" x2="133" y1="1084" y2="1084" /><line fill="none" stroke="black" stroke-linecap="square" stroke-width="1" x1="388" x2="388" y1="269" y2="197" /><line fill="none" stroke="black" stroke-linecap="square" stroke-width="1" x1="296" x2="296" y1="320" y2="286" /><line fill="none" stroke="black" stroke-linecap="square" stroke-width="1" x1="67" x2="67" y1="1093" y2="990" /><line fill="none" stroke="black" stroke-linecap="square" stroke-width="1" x1="380" x2="381" y1="252" y2="336" /><line fill="none" stroke="black" stroke-linecap="square" stroke-width="1" x1="184" x2="306" y1="198" y2="198" /><line fill="none" stroke="black" stroke-linecap="square" stroke-width="1" x1="185" x2="302" y1="205" y2="205" /><line fill="none" stroke="black" stroke-linecap="square" stroke-width="1" x1="610" x2="610" y1="785" y2="743" /><line fill="none" stroke="black" stroke-linecap="square" stroke-width="1" x1="304" x2="304" y1="630" y2="679" /><line fill="none" stroke="black" stroke-linecap="square" stroke-width="1" x1="382" x2="437" y1="1099" y2="1099" /><line fill="none" stroke="black" stroke-linecap="square" stroke-width="1" x1="250" x2="288" y1="1096" y2="1096" /><line fill="none" stroke="black" stroke-linecap="square" stroke-width="1" x1="83" x2="186" y1="695" y2="695" /><line fill="none" stroke="black" stroke-linecap="square" stroke-width="1" x1="183" x2="306" y1="138" y2="141" /><line fill="none" stroke="black" stroke-linecap="square" stroke-width="1" x1="70" x2="70" y1="1095" y2="993" /><line fill="none" stroke="black" stroke-linecap="square" stroke-width="1" x1="385" x2="385" y1="269" y2="197" /><line fill="none" stroke="black" stroke-linecap="square" stroke-width="1" x1="82" x2="82" y1="1099" y2="993" /><line fill="none" stroke="black" stroke-linecap="square" stroke-width="1" x1="520" x2="576" y1="42" y2="42" /><line fill="none" stroke="black" stroke-linecap="square" stroke-width="1" x1="295" x2="296" y1="374" y2="321" /><line fill="none" stroke="black" stroke-linecap="square" stroke-width="1" x1="612" x2="612" y1="706" y2="678" /><line fill="none" stroke="black" stroke-linecap="square" stroke-width="1" x1="299" x2="300" y1="333" y2="297" /><line fill="none" stroke="black" stroke-linecap="square" stroke-width="1" x1="85" x2="85" y1="1099" y2="997" /><line fill="none" stroke="black" stroke-linecap="square" stroke-width="1" x1="297" x2="382" y1="51" y2="51" /><line fill="none" stroke="black" stroke-linecap="square" stroke-width="1" x1="293" x2="293" y1="235" y2="208" /><line fill="none" stroke="black" stroke-linecap="square" stroke-width="1" x1="557" x2="587" y1="1084" y2="1083" /><line fill="none" stroke="black" stroke-linecap="square" stroke-width="1" x1="616" x2="616" y1="548" y2="483" /><line fill="none" stroke="black" stroke-linecap="square" stroke-width="1" x1="293" x2="293" y1="369" y2="397" /><line fill="none" stroke="black" stroke-linecap="square" stroke-width="1" x1="610" x2="612" y1="822" y2="923" /><line fill="none" stroke="black" stroke-linecap="square" stroke-width="1" x1="79" x2="180" y1="690" y2="690" /><line fill="none" stroke="black" stroke-linecap="square" stroke-width="1" x1="467" x2="515" y1="1093" y2="1094" /><line fill="none" stroke="black" stroke-linecap="square" stroke-width="1" x1="616" x2="616" y1="191" y2="150" /><line fill="none" stroke="black" stroke-linecap="square" stroke-width="1" x1="587" x2="587" y1="298" y2="267" /><line fill="none" stroke="black" stroke-linecap="square" stroke-width="1" x1="296" x2="296" y1="484" y2="530" /><line fill="none" stroke="black" stroke-linecap="square" stroke-width="1" x1="380" x2="380" y1="199" y2="251" /><line fill="none" stroke="black" stroke-linecap="square" stroke-width="1" x1="609" x2="609" y1="743" y2="682" /><line fill="none" stroke="black" stroke-linecap="square" stroke-width="1" x1="382" x2="383" y1="642" y2="698" /><line fill="none" stroke="black" stroke-linecap="square" stroke-width="1" x1="227" x2="303" y1="708" y2="708" /><line fill="none" stroke="black" stroke-linecap="square" stroke-width="1" x1="584" x2="584" y1="687" y2="662" /><line fill="none" stroke="black" stroke-linecap="square" stroke-width="1" x1="438" x2="502" y1="1092" y2="1091" /><line fill="none" stroke="black" stroke-linecap="square" stroke-width="1" x1="303" x2="305" y1="808" y2="748" /><line fill="none" stroke="black" stroke-linecap="square" stroke-width="1" x1="193" x2="194" y1="178" y2="204" /><line fill="none" stroke="black" stroke-linecap="square" stroke-width="1" x1="297" x2="297" y1="88" y2="40" /><line fill="none" stroke="black" stroke-linecap="square" stroke-width="1" x1="228" x2="233" y1="736" y2="697" /><line fill="none" stroke="black" stroke-linecap="square" stroke-width="1" x1="296" x2="296" y1="457" y2="401" /><line fill="none" stroke="black" stroke-linecap="square" stroke-width="1" x1="616" x2="617" y1="894" y2="983" /><line fill="none" stroke="black" stroke-linecap="square" stroke-width="1" x1="102" x2="135" y1="1087" y2="1087" /><line fill="none" stroke="black" stroke-linecap="square" stroke-width="1" x1="433" x2="485" y1="690" y2="691" /><line fill="none" stroke="black" stroke-linecap="square" stroke-width="1" x1="601" x2="602" y1="39" y2="93" /><line fill="none" stroke="black" stroke-linecap="square" stroke-width="1" x1="290" x2="290" y1="234" y2="208" /><line fill="none" stroke="black" stroke-linecap="square" stroke-width="1" x1="306" x2="307" y1="82" y2="149" /><line fill="none" stroke="black" stroke-linecap="square" stroke-width="1" x1="191" x2="191" y1="204" y2="153" /><line fill="none" stroke="black" stroke-linecap="square" stroke-width="1" x1="431" x2="469" y1="1096" y2="1095" /><line fill="none" stroke="black" stroke-linecap="square" stroke-width="1" x1="87" x2="143" y1="1096" y2="1096" /><line fill="none" stroke="black" stroke-linecap="square" stroke-width="1" x1="303" x2="304" y1="144" y2="115" /><line fill="none" stroke="black" stroke-linecap="square" stroke-width="1" x1="235" x2="307" y1="703" y2="703" /><line fill="none" stroke="black" stroke-linecap="square" stroke-width="1" x1="432" x2="492" y1="653" y2="653" /><line fill="none" stroke="black" stroke-linecap="square" stroke-width="1" x1="320" x2="382" y1="54" y2="54" /><line fill="none" stroke="black" stroke-linecap="square" stroke-width="1" x1="306" x2="307" y1="749" y2="785" /><line fill="none" stroke="black" stroke-linecap="square" stroke-width="1" x1="387" x2="387" y1="674" y2="642" /><line fill="none" stroke="black" stroke-linecap="square" stroke-width="1" x1="609" x2="609" y1="892" y2="932" /><line fill="none" stroke="black" stroke-linecap="square" stroke-width="1" x1="229" x2="229" y1="696" y2="724" /><line fill="none" stroke="black" stroke-linecap="square" stroke-width="1" x1="299" x2="299" y1="82" y2="43" /><line fill="none" stroke="black" stroke-linecap="square" stroke-width="1" x1="519" x2="575" y1="39" y2="39" /><line fill="none" stroke="black" stroke-linecap="square" stroke-width="1" x1="599" x2="599" y1="89" y2="56" /><line fill="none" stroke="black" stroke-linecap="square" stroke-width="1" x1="209" x2="238" y1="1096" y2="1095" /><line fill="none" stroke="black" stroke-linecap="square" stroke-width="1" x1="601" x2="602" y1="650" y2="689" /><line fill="none" stroke="black" stroke-linecap="square" stroke-width="1" x1="253" x2="306" y1="143" y2="143" /><line fill="none" stroke="black" stroke-linecap="square" stroke-width="1" x1="602" x2="602" y1="1051" y2="1084" /><line fill="none" stroke="black" stroke-linecap="square" stroke-width="1" x1="544" x2="601" y1="1087" y2="1086" /><line fill="none" stroke="black" stroke-linecap="square" stroke-width="1" x1="99" x2="137" y1="1099" y2="1098" /><line fill="none" stroke="black" stroke-linecap="square" stroke-width="1" x1="466" x2="513" y1="45" y2="45" /><line fill="none" stroke="black" stroke-linecap="square" stroke-width="1" x1="231" x2="233" y1="717" y2="806" /><line fill="none" stroke="black" stroke-linecap="square" stroke-width="1" x1="440" x2="469" y1="45" y2="44" /><line fill="none" stroke="black" stroke-linecap="square" stroke-width="1" x1="382" x2="385" y1="910" y2="942" /><line fill="none" stroke="black" stroke-linecap="square" stroke-width="1" x1="490" x2="490" y1="693" y2="645" /><line fill="none" stroke="black" stroke-linecap="square" stroke-width="1" x1="390" x2="415" y1="663" y2="663" /><line fill="none" stroke="black" stroke-linecap="square" stroke-width="1" x1="486" x2="511" y1="687" y2="687" /><line fill="none" stroke="black" stroke-linecap="square" stroke-width="1" x1="616" x2="617" y1="427" y2="331" /></svg>